<?xml version="1.0" encoding="UTF-8" standalone="no"?>
<!DOCTYPE svg PUBLIC "-//W3C//DTD SVG 1.1//EN"
 "http://www.w3.org/Graphics/SVG/1.1/DTD/svg11.dtd">
<!-- Generated by graphviz version 2.40.1 (20161225.0304)
 -->
<!-- Title: CG Pages: 1 -->
<svg width="767pt" height="2238pt"
 viewBox="0.00 0.00 766.83 2238.00" xmlns="http://www.w3.org/2000/svg" xmlns:xlink="http://www.w3.org/1999/xlink">
<g id="graph0" class="graph" transform="scale(1 1) rotate(0) translate(4 2234)">
<title>CG</title>
<polygon fill="#ffffff" stroke="transparent" points="-4,4 -4,-2234 762.8276,-2234 762.8276,4 -4,4"/>
<!-- 137 -->
<g id="node1" class="node">
<title>137</title>
<polygon fill="none" stroke="#000000" points="405.1206,-103.5 405.1206,-169.5 526.9243,-169.5 526.9243,-103.5 405.1206,-103.5"/>
<text text-anchor="middle" x="427.1206" y="-143.3" font-family="Times,serif" font-size="14.00" fill="#000000">#137</text>
<polyline fill="none" stroke="#000000" points="449.1206,-125.5 449.1206,-169.5 "/>
<text text-anchor="middle" x="488.0225" y="-154.3" font-family="Times,serif" font-size="14.00" fill="#000000"> </text>
<polyline fill="none" stroke="#000000" points="449.1206,-147.5 526.9243,-147.5 "/>
<text text-anchor="middle" x="488.0225" y="-132.3" font-family="Times,serif" font-size="14.00" fill="#000000">Scalar Neg</text>
<polyline fill="none" stroke="#000000" points="405.1206,-125.5 526.9243,-125.5 "/>
<text text-anchor="middle" x="466.0225" y="-110.3" font-family="Times,serif" font-size="14.00" fill="#000000">r:1; s:[]; b:&#45;1</text>
</g>
<!-- 139 -->
<g id="node2" class="node">
<title>139</title>
<polygon fill="none" stroke="#000000" points="341.2827,-.5 341.2827,-66.5 460.7622,-66.5 460.7622,-.5 341.2827,-.5"/>
<text text-anchor="middle" x="363.2827" y="-40.3" font-family="Times,serif" font-size="14.00" fill="#000000">#139</text>
<polyline fill="none" stroke="#000000" points="385.2827,-22.5 385.2827,-66.5 "/>
<text text-anchor="middle" x="423.0225" y="-51.3" font-family="Times,serif" font-size="14.00" fill="#000000"> </text>
<polyline fill="none" stroke="#000000" points="385.2827,-44.5 460.7622,-44.5 "/>
<text text-anchor="middle" x="423.0225" y="-29.3" font-family="Times,serif" font-size="14.00" fill="#000000">Scalar Div</text>
<polyline fill="none" stroke="#000000" points="341.2827,-22.5 460.7622,-22.5 "/>
<text text-anchor="middle" x="401.0225" y="-7.3" font-family="Times,serif" font-size="14.00" fill="#000000">r:0; s:[]; b:&#45;1</text>
</g>
<!-- 137&#45;&gt;139 -->
<g id="edge1" class="edge">
<title>137&#45;&gt;139</title>
<path fill="none" stroke="#000000" d="M445.0983,-103.3432C439.4154,-94.3381 433.1894,-84.4722 427.2534,-75.066"/>
<polygon fill="#000000" stroke="#000000" points="430.2042,-73.1836 421.9075,-66.5947 424.2844,-76.9194 430.2042,-73.1836"/>
</g>
<!-- 130 -->
<g id="node3" class="node">
<title>130</title>
<polygon fill="none" stroke="#000000" points="284.4673,-103.5 284.4673,-169.5 387.5776,-169.5 387.5776,-103.5 284.4673,-103.5"/>
<text text-anchor="middle" x="308.9673" y="-143.3" font-family="Times,serif" font-size="14.00" fill="#000000">#130</text>
<polyline fill="none" stroke="#000000" points="333.4673,-125.5 333.4673,-169.5 "/>
<text text-anchor="middle" x="360.3052" y="-154.3" font-family="Times,serif" font-size="14.00" fill="#000000"> </text>
<polyline fill="none" stroke="#000000" points="333.4673,-147.5 387.1431,-147.5 "/>
<text text-anchor="middle" x="360.3052" y="-132.3" font-family="Times,serif" font-size="14.00" fill="#000000">Const</text>
<polyline fill="none" stroke="#000000" points="284.4673,-125.5 387.5776,-125.5 "/>
<text text-anchor="middle" x="336.0225" y="-110.3" font-family="Times,serif" font-size="14.00" fill="#000000">r:0; v:100; b:25</text>
</g>
<!-- 130&#45;&gt;139 -->
<g id="edge2" class="edge">
<title>130&#45;&gt;139</title>
<path fill="none" stroke="#000000" d="M356.9467,-103.3432C362.6295,-94.3381 368.8555,-84.4722 374.7915,-75.066"/>
<polygon fill="#000000" stroke="#000000" points="377.7605,-76.9194 380.1375,-66.5947 371.8407,-73.1836 377.7605,-76.9194"/>
</g>
<!-- 135 -->
<g id="node4" class="node">
<title>135</title>
<polygon fill="none" stroke="#000000" points="421.9233,-206.5 421.9233,-272.5 510.1216,-272.5 510.1216,-206.5 421.9233,-206.5"/>
<text text-anchor="middle" x="443.9233" y="-246.3" font-family="Times,serif" font-size="14.00" fill="#000000">#135</text>
<polyline fill="none" stroke="#000000" points="465.9233,-228.5 465.9233,-272.5 "/>
<text text-anchor="middle" x="488.0225" y="-257.3" font-family="Times,serif" font-size="14.00" fill="#000000"> </text>
<polyline fill="none" stroke="#000000" points="465.9233,-250.5 510.1216,-250.5 "/>
<text text-anchor="middle" x="488.0225" y="-235.3" font-family="Times,serif" font-size="14.00" fill="#000000">Sum&#39;</text>
<polyline fill="none" stroke="#000000" points="421.9233,-228.5 510.1216,-228.5 "/>
<text text-anchor="middle" x="466.0225" y="-213.3" font-family="Times,serif" font-size="14.00" fill="#000000">r:1; s:[]; b:&#45;1</text>
</g>
<!-- 135&#45;&gt;137 -->
<g id="edge3" class="edge">
<title>135&#45;&gt;137</title>
<path fill="none" stroke="#000000" d="M466.0225,-206.3432C466.0225,-197.8894 466.0225,-188.6771 466.0225,-179.7985"/>
<polygon fill="#000000" stroke="#000000" points="469.5226,-179.5946 466.0225,-169.5947 462.5226,-179.5947 469.5226,-179.5946"/>
</g>
<!-- 133 -->
<g id="node5" class="node">
<title>133</title>
<polygon fill="none" stroke="#000000" points="403,-309.5 403,-375.5 529.0449,-375.5 529.0449,-309.5 403,-309.5"/>
<text text-anchor="middle" x="435.5" y="-349.3" font-family="Times,serif" font-size="14.00" fill="#000000">#133</text>
<polyline fill="none" stroke="#000000" points="468,-331.5 468,-375.5 "/>
<text text-anchor="middle" x="498.1689" y="-360.3" font-family="Times,serif" font-size="14.00" fill="#000000"> </text>
<polyline fill="none" stroke="#000000" points="468,-353.5 528.3379,-353.5 "/>
<text text-anchor="middle" x="498.1689" y="-338.3" font-family="Times,serif" font-size="14.00" fill="#000000">Mul</text>
<polyline fill="none" stroke="#000000" points="403,-331.5 529.0449,-331.5 "/>
<text text-anchor="middle" x="466.0225" y="-316.3" font-family="Times,serif" font-size="14.00" fill="#000000">r:1; s:[100,10]; b:&#45;1</text>
</g>
<!-- 133&#45;&gt;135 -->
<g id="edge4" class="edge">
<title>133&#45;&gt;135</title>
<path fill="none" stroke="#000000" d="M466.0225,-309.3432C466.0225,-300.8894 466.0225,-291.6771 466.0225,-282.7985"/>
<polygon fill="#000000" stroke="#000000" points="469.5226,-282.5946 466.0225,-272.5947 462.5226,-282.5947 469.5226,-282.5946"/>
</g>
<!-- 78 -->
<g id="node6" class="node">
<title>78</title>
<polygon fill="none" stroke="#000000" points="331,-412.5 331,-478.5 457.0449,-478.5 457.0449,-412.5 331,-412.5"/>
<text text-anchor="middle" x="362.5" y="-452.3" font-family="Times,serif" font-size="14.00" fill="#000000">#78</text>
<polyline fill="none" stroke="#000000" points="394,-434.5 394,-478.5 "/>
<text text-anchor="middle" x="425.2173" y="-463.3" font-family="Times,serif" font-size="14.00" fill="#000000">yt</text>
<polyline fill="none" stroke="#000000" points="394,-456.5 456.4346,-456.5 "/>
<text text-anchor="middle" x="425.2173" y="-441.3" font-family="Times,serif" font-size="14.00" fill="#000000">Var</text>
<polyline fill="none" stroke="#000000" points="331,-434.5 457.0449,-434.5 "/>
<text text-anchor="middle" x="394.0225" y="-419.3" font-family="Times,serif" font-size="14.00" fill="#000000">r:1; s:[100,10]; b:&#45;1</text>
</g>
<!-- 78&#45;&gt;133 -->
<g id="edge5" class="edge">
<title>78&#45;&gt;133</title>
<path fill="none" stroke="#000000" d="M417.2,-412.3432C423.4949,-403.3381 430.3914,-393.4722 436.9666,-384.066"/>
<polygon fill="#000000" stroke="#000000" points="440.0276,-385.796 442.8883,-375.5947 434.2904,-381.7855 440.0276,-385.796"/>
</g>
<!-- 131 -->
<g id="node7" class="node">
<title>131</title>
<polygon fill="none" stroke="#000000" points="475,-412.5 475,-478.5 601.0449,-478.5 601.0449,-412.5 475,-412.5"/>
<text text-anchor="middle" x="507.5" y="-452.3" font-family="Times,serif" font-size="14.00" fill="#000000">#131</text>
<polyline fill="none" stroke="#000000" points="540,-434.5 540,-478.5 "/>
<text text-anchor="middle" x="570.2759" y="-463.3" font-family="Times,serif" font-size="14.00" fill="#000000"> </text>
<polyline fill="none" stroke="#000000" points="540,-456.5 600.5518,-456.5 "/>
<text text-anchor="middle" x="570.2759" y="-441.3" font-family="Times,serif" font-size="14.00" fill="#000000">Log</text>
<polyline fill="none" stroke="#000000" points="475,-434.5 601.0449,-434.5 "/>
<text text-anchor="middle" x="538.0225" y="-419.3" font-family="Times,serif" font-size="14.00" fill="#000000">r:1; s:[100,10]; b:&#45;1</text>
</g>
<!-- 131&#45;&gt;133 -->
<g id="edge6" class="edge">
<title>131&#45;&gt;133</title>
<path fill="none" stroke="#000000" d="M514.8449,-412.3432C508.55,-403.3381 501.6535,-393.4722 495.0783,-384.066"/>
<polygon fill="#000000" stroke="#000000" points="497.7546,-381.7855 489.1566,-375.5947 492.0173,-385.796 497.7546,-381.7855"/>
</g>
<!-- 128 -->
<g id="node8" class="node">
<title>128</title>
<polygon fill="none" stroke="#000000" points="475,-515.5 475,-581.5 601.0449,-581.5 601.0449,-515.5 475,-515.5"/>
<text text-anchor="middle" x="508" y="-555.3" font-family="Times,serif" font-size="14.00" fill="#000000">#128</text>
<polyline fill="none" stroke="#000000" points="541,-537.5 541,-581.5 "/>
<text text-anchor="middle" x="571" y="-566.3" font-family="Times,serif" font-size="14.00" fill="#000000"> </text>
<polyline fill="none" stroke="#000000" points="541,-559.5 601,-559.5 "/>
<text text-anchor="middle" x="571" y="-544.3" font-family="Times,serif" font-size="14.00" fill="#000000">Div</text>
<polyline fill="none" stroke="#000000" points="475,-537.5 601.0449,-537.5 "/>
<text text-anchor="middle" x="538.0225" y="-522.3" font-family="Times,serif" font-size="14.00" fill="#000000">r:1; s:[100,10]; b:&#45;1</text>
</g>
<!-- 128&#45;&gt;131 -->
<g id="edge7" class="edge">
<title>128&#45;&gt;131</title>
<path fill="none" stroke="#000000" d="M538.0225,-515.3432C538.0225,-506.8894 538.0225,-497.6771 538.0225,-488.7985"/>
<polygon fill="#000000" stroke="#000000" points="541.5226,-488.5946 538.0225,-478.5947 534.5226,-488.5947 541.5226,-488.5946"/>
</g>
<!-- 124 -->
<g id="node9" class="node">
<title>124</title>
<polygon fill="none" stroke="#000000" points="475,-721.5 475,-787.5 601.0449,-787.5 601.0449,-721.5 475,-721.5"/>
<text text-anchor="middle" x="507.5" y="-761.3" font-family="Times,serif" font-size="14.00" fill="#000000">#124</text>
<polyline fill="none" stroke="#000000" points="540,-743.5 540,-787.5 "/>
<text text-anchor="middle" x="570.2759" y="-772.3" font-family="Times,serif" font-size="14.00" fill="#000000"> </text>
<polyline fill="none" stroke="#000000" points="540,-765.5 600.5518,-765.5 "/>
<text text-anchor="middle" x="570.2759" y="-750.3" font-family="Times,serif" font-size="14.00" fill="#000000">Exp</text>
<polyline fill="none" stroke="#000000" points="475,-743.5 601.0449,-743.5 "/>
<text text-anchor="middle" x="538.0225" y="-728.3" font-family="Times,serif" font-size="14.00" fill="#000000">r:2; s:[100,10]; b:&#45;1</text>
</g>
<!-- 124&#45;&gt;128 -->
<g id="edge8" class="edge">
<title>124&#45;&gt;128</title>
<path fill="none" stroke="#000000" d="M523.4109,-721.2015C519.1816,-709.9321 515.1372,-697.1269 513.0225,-685 507.9068,-655.6649 507.9068,-647.3351 513.0225,-618 514.559,-609.189 517.1141,-600.02 520.0187,-591.3422"/>
<polygon fill="#000000" stroke="#000000" points="523.3595,-592.3932 523.4109,-581.7985 516.7638,-590.0488 523.3595,-592.3932"/>
</g>
<!-- 126 -->
<g id="node10" class="node">
<title>126</title>
<polygon fill="none" stroke="#000000" points="521.7139,-618.5 521.7139,-684.5 644.3311,-684.5 644.3311,-618.5 521.7139,-618.5"/>
<text text-anchor="middle" x="543.7139" y="-658.3" font-family="Times,serif" font-size="14.00" fill="#000000">#126</text>
<polyline fill="none" stroke="#000000" points="565.7139,-640.5 565.7139,-684.5 "/>
<text text-anchor="middle" x="605.0225" y="-669.3" font-family="Times,serif" font-size="14.00" fill="#000000"> </text>
<polyline fill="none" stroke="#000000" points="565.7139,-662.5 644.3311,-662.5 "/>
<text text-anchor="middle" x="605.0225" y="-647.3" font-family="Times,serif" font-size="14.00" fill="#000000">Sum axis:1</text>
<polyline fill="none" stroke="#000000" points="521.7139,-640.5 644.3311,-640.5 "/>
<text text-anchor="middle" x="583.0225" y="-625.3" font-family="Times,serif" font-size="14.00" fill="#000000">r:1; s:[100,1]; b:&#45;1</text>
</g>
<!-- 124&#45;&gt;126 -->
<g id="edge36" class="edge">
<title>124&#45;&gt;126</title>
<path fill="none" stroke="#000000" d="M552.5084,-721.3432C556.3223,-712.6137 560.4895,-703.0755 564.4846,-693.9311"/>
<polygon fill="#000000" stroke="#000000" points="567.7673,-695.1596 568.5636,-684.5947 561.3528,-692.3571 567.7673,-695.1596"/>
</g>
<!-- 126&#45;&gt;128 -->
<g id="edge9" class="edge">
<title>126&#45;&gt;128</title>
<path fill="none" stroke="#000000" d="M568.5365,-618.3432C564.7226,-609.6137 560.5554,-600.0755 556.5603,-590.9311"/>
<polygon fill="#000000" stroke="#000000" points="559.6921,-589.3571 552.4813,-581.5947 553.2776,-592.1596 559.6921,-589.3571"/>
</g>
<!-- 122 -->
<g id="node11" class="node">
<title>122</title>
<polygon fill="none" stroke="#000000" points="475,-824.5 475,-890.5 601.0449,-890.5 601.0449,-824.5 475,-824.5"/>
<text text-anchor="middle" x="508" y="-864.3" font-family="Times,serif" font-size="14.00" fill="#000000">#122</text>
<polyline fill="none" stroke="#000000" points="541,-846.5 541,-890.5 "/>
<text text-anchor="middle" x="570.8931" y="-875.3" font-family="Times,serif" font-size="14.00" fill="#000000"> </text>
<polyline fill="none" stroke="#000000" points="541,-868.5 600.7861,-868.5 "/>
<text text-anchor="middle" x="570.8931" y="-853.3" font-family="Times,serif" font-size="14.00" fill="#000000">Sub</text>
<polyline fill="none" stroke="#000000" points="475,-846.5 601.0449,-846.5 "/>
<text text-anchor="middle" x="538.0225" y="-831.3" font-family="Times,serif" font-size="14.00" fill="#000000">r:1; s:[100,10]; b:&#45;1</text>
</g>
<!-- 122&#45;&gt;124 -->
<g id="edge10" class="edge">
<title>122&#45;&gt;124</title>
<path fill="none" stroke="#000000" d="M538.0225,-824.3432C538.0225,-815.8894 538.0225,-806.6771 538.0225,-797.7985"/>
<polygon fill="#000000" stroke="#000000" points="541.5226,-797.5946 538.0225,-787.5947 534.5226,-797.5947 541.5226,-797.5946"/>
</g>
<!-- 119 -->
<g id="node12" class="node">
<title>119</title>
<polygon fill="none" stroke="#000000" points="475,-1030.5 475,-1096.5 601.0449,-1096.5 601.0449,-1030.5 475,-1030.5"/>
<text text-anchor="middle" x="507.2437" y="-1070.3" font-family="Times,serif" font-size="14.00" fill="#000000">#119</text>
<polyline fill="none" stroke="#000000" points="539.4873,-1052.5 539.4873,-1096.5 "/>
<text text-anchor="middle" x="570.0425" y="-1081.3" font-family="Times,serif" font-size="14.00" fill="#000000"> </text>
<polyline fill="none" stroke="#000000" points="539.4873,-1074.5 600.5977,-1074.5 "/>
<text text-anchor="middle" x="570.0425" y="-1059.3" font-family="Times,serif" font-size="14.00" fill="#000000">Add</text>
<polyline fill="none" stroke="#000000" points="475,-1052.5 601.0449,-1052.5 "/>
<text text-anchor="middle" x="538.0225" y="-1037.3" font-family="Times,serif" font-size="14.00" fill="#000000">r:2; s:[100,10]; b:&#45;1</text>
</g>
<!-- 119&#45;&gt;122 -->
<g id="edge11" class="edge">
<title>119&#45;&gt;122</title>
<path fill="none" stroke="#000000" d="M523.4109,-1030.2015C519.1816,-1018.9321 515.1372,-1006.1269 513.0225,-994 507.9068,-964.6649 507.9068,-956.3351 513.0225,-927 514.559,-918.189 517.1141,-909.02 520.0187,-900.3422"/>
<polygon fill="#000000" stroke="#000000" points="523.3595,-901.3932 523.4109,-890.7985 516.7638,-899.0488 523.3595,-901.3932"/>
</g>
<!-- 121 -->
<g id="node13" class="node">
<title>121</title>
<polygon fill="none" stroke="#000000" points="521.7207,-927.5 521.7207,-993.5 644.3242,-993.5 644.3242,-927.5 521.7207,-927.5"/>
<text text-anchor="middle" x="543.7207" y="-967.3" font-family="Times,serif" font-size="14.00" fill="#000000">#121</text>
<polyline fill="none" stroke="#000000" points="565.7207,-949.5 565.7207,-993.5 "/>
<text text-anchor="middle" x="605.0225" y="-978.3" font-family="Times,serif" font-size="14.00" fill="#000000"> </text>
<polyline fill="none" stroke="#000000" points="565.7207,-971.5 644.3242,-971.5 "/>
<text text-anchor="middle" x="605.0225" y="-956.3" font-family="Times,serif" font-size="14.00" fill="#000000">Max axis:1</text>
<polyline fill="none" stroke="#000000" points="521.7207,-949.5 644.3242,-949.5 "/>
<text text-anchor="middle" x="583.0225" y="-934.3" font-family="Times,serif" font-size="14.00" fill="#000000">r:1; s:[100,1]; b:&#45;1</text>
</g>
<!-- 119&#45;&gt;121 -->
<g id="edge35" class="edge">
<title>119&#45;&gt;121</title>
<path fill="none" stroke="#000000" d="M552.5084,-1030.3432C556.3223,-1021.6137 560.4895,-1012.0755 564.4846,-1002.9311"/>
<polygon fill="#000000" stroke="#000000" points="567.7673,-1004.1596 568.5636,-993.5947 561.3528,-1001.3571 567.7673,-1004.1596"/>
</g>
<!-- 121&#45;&gt;122 -->
<g id="edge12" class="edge">
<title>121&#45;&gt;122</title>
<path fill="none" stroke="#000000" d="M568.5365,-927.3432C564.7226,-918.6137 560.5554,-909.0755 556.5603,-899.9311"/>
<polygon fill="#000000" stroke="#000000" points="559.6921,-898.3571 552.4813,-890.5947 553.2776,-901.1596 559.6921,-898.3571"/>
</g>
<!-- 117 -->
<g id="node14" class="node">
<title>117</title>
<polygon fill="none" stroke="#000000" points="407,-1133.5 407,-1199.5 533.0449,-1199.5 533.0449,-1133.5 407,-1133.5"/>
<text text-anchor="middle" x="439.7437" y="-1173.3" font-family="Times,serif" font-size="14.00" fill="#000000">#117</text>
<polyline fill="none" stroke="#000000" points="472.4873,-1155.5 472.4873,-1199.5 "/>
<text text-anchor="middle" x="502.4873" y="-1184.3" font-family="Times,serif" font-size="14.00" fill="#000000"> </text>
<polyline fill="none" stroke="#000000" points="472.4873,-1177.5 532.4873,-1177.5 "/>
<text text-anchor="middle" x="502.4873" y="-1162.3" font-family="Times,serif" font-size="14.00" fill="#000000">Dot</text>
<polyline fill="none" stroke="#000000" points="407,-1155.5 533.0449,-1155.5 "/>
<text text-anchor="middle" x="470.0225" y="-1140.3" font-family="Times,serif" font-size="14.00" fill="#000000">r:1; s:[100,10]; b:&#45;1</text>
</g>
<!-- 117&#45;&gt;119 -->
<g id="edge13" class="edge">
<title>117&#45;&gt;119</title>
<path fill="none" stroke="#000000" d="M491.9124,-1133.3432C497.8575,-1124.3381 504.3709,-1114.4722 510.5808,-1105.066"/>
<polygon fill="#000000" stroke="#000000" points="513.5848,-1106.8684 516.1735,-1096.5947 507.7431,-1103.0117 513.5848,-1106.8684"/>
</g>
<!-- 90 -->
<g id="node15" class="node">
<title>90</title>
<polygon fill="none" stroke="#000000" points="551,-1133.5 551,-1199.5 663.0449,-1199.5 663.0449,-1133.5 551,-1133.5"/>
<text text-anchor="middle" x="576" y="-1173.3" font-family="Times,serif" font-size="14.00" fill="#000000">#90</text>
<polyline fill="none" stroke="#000000" points="601,-1155.5 601,-1199.5 "/>
<text text-anchor="middle" x="631.938" y="-1184.3" font-family="Times,serif" font-size="14.00" fill="#000000"> </text>
<polyline fill="none" stroke="#000000" points="601,-1177.5 662.876,-1177.5 "/>
<text text-anchor="middle" x="631.938" y="-1162.3" font-family="Times,serif" font-size="14.00" fill="#000000">Zeros</text>
<polyline fill="none" stroke="#000000" points="551,-1155.5 663.0449,-1155.5 "/>
<text text-anchor="middle" x="607.0225" y="-1140.3" font-family="Times,serif" font-size="14.00" fill="#000000">r:1; s:[1,10]; b:&#45;1</text>
</g>
<!-- 90&#45;&gt;119 -->
<g id="edge14" class="edge">
<title>90&#45;&gt;119</title>
<path fill="none" stroke="#000000" d="M584.8106,-1133.3432C578.7781,-1124.3381 572.1689,-1114.4722 565.8676,-1105.066"/>
<polygon fill="#000000" stroke="#000000" points="568.6662,-1102.9548 560.1927,-1096.5947 562.8505,-1106.8507 568.6662,-1102.9548"/>
</g>
<!-- 113 -->
<g id="node16" class="node">
<title>113</title>
<polygon fill="none" stroke="#000000" points="323,-1236.5 323,-1302.5 463.0449,-1302.5 463.0449,-1236.5 323,-1236.5"/>
<text text-anchor="middle" x="358.2437" y="-1276.3" font-family="Times,serif" font-size="14.00" fill="#000000">#113</text>
<polyline fill="none" stroke="#000000" points="393.4873,-1258.5 393.4873,-1302.5 "/>
<text text-anchor="middle" x="428.208" y="-1287.3" font-family="Times,serif" font-size="14.00" fill="#000000"> </text>
<polyline fill="none" stroke="#000000" points="393.4873,-1280.5 462.9287,-1280.5 "/>
<text text-anchor="middle" x="428.208" y="-1265.3" font-family="Times,serif" font-size="14.00" fill="#000000">Relu</text>
<polyline fill="none" stroke="#000000" points="323,-1258.5 463.0449,-1258.5 "/>
<text text-anchor="middle" x="393.0225" y="-1243.3" font-family="Times,serif" font-size="14.00" fill="#000000">r:1; s:[100,1024]; b:&#45;1</text>
</g>
<!-- 113&#45;&gt;117 -->
<g id="edge15" class="edge">
<title>113&#45;&gt;117</title>
<path fill="none" stroke="#000000" d="M417.8096,-1236.3432C424.6103,-1227.2462 432.0676,-1217.2708 439.164,-1207.7782"/>
<polygon fill="#000000" stroke="#000000" points="442.0975,-1209.6997 445.2818,-1199.5947 436.4909,-1205.5084 442.0975,-1209.6997"/>
</g>
<!-- 89 -->
<g id="node17" class="node">
<title>89</title>
<polygon fill="none" stroke="#000000" points="481.5,-1236.5 481.5,-1302.5 614.5449,-1302.5 614.5449,-1236.5 481.5,-1236.5"/>
<text text-anchor="middle" x="507.5" y="-1276.3" font-family="Times,serif" font-size="14.00" fill="#000000">#89</text>
<polyline fill="none" stroke="#000000" points="533.5,-1258.5 533.5,-1302.5 "/>
<text text-anchor="middle" x="573.6069" y="-1287.3" font-family="Times,serif" font-size="14.00" fill="#000000"> </text>
<polyline fill="none" stroke="#000000" points="533.5,-1280.5 613.7139,-1280.5 "/>
<text text-anchor="middle" x="573.6069" y="-1265.3" font-family="Times,serif" font-size="14.00" fill="#000000">Uniform</text>
<polyline fill="none" stroke="#000000" points="481.5,-1258.5 614.5449,-1258.5 "/>
<text text-anchor="middle" x="548.0225" y="-1243.3" font-family="Times,serif" font-size="14.00" fill="#000000">r:1; s:[1024,10]; b:&#45;1</text>
</g>
<!-- 89&#45;&gt;117 -->
<g id="edge16" class="edge">
<title>89&#45;&gt;117</title>
<path fill="none" stroke="#000000" d="M522.9134,-1236.3432C516.0244,-1227.2462 508.4703,-1217.2708 501.2817,-1207.7782"/>
<polygon fill="#000000" stroke="#000000" points="503.9118,-1205.4538 495.0845,-1199.5947 498.3314,-1209.6797 503.9118,-1205.4538"/>
</g>
<!-- 111 -->
<g id="node18" class="node">
<title>111</title>
<polygon fill="none" stroke="#000000" points="323,-1339.5 323,-1405.5 463.0449,-1405.5 463.0449,-1339.5 323,-1339.5"/>
<text text-anchor="middle" x="358.4873" y="-1379.3" font-family="Times,serif" font-size="14.00" fill="#000000">#111</text>
<polyline fill="none" stroke="#000000" points="393.9746,-1361.5 393.9746,-1405.5 "/>
<text text-anchor="middle" x="428.0298" y="-1390.3" font-family="Times,serif" font-size="14.00" fill="#000000"> </text>
<polyline fill="none" stroke="#000000" points="393.9746,-1383.5 462.085,-1383.5 "/>
<text text-anchor="middle" x="428.0298" y="-1368.3" font-family="Times,serif" font-size="14.00" fill="#000000">Add</text>
<polyline fill="none" stroke="#000000" points="323,-1361.5 463.0449,-1361.5 "/>
<text text-anchor="middle" x="393.0225" y="-1346.3" font-family="Times,serif" font-size="14.00" fill="#000000">r:1; s:[100,1024]; b:&#45;1</text>
</g>
<!-- 111&#45;&gt;113 -->
<g id="edge17" class="edge">
<title>111&#45;&gt;113</title>
<path fill="none" stroke="#000000" d="M393.0225,-1339.3432C393.0225,-1330.8894 393.0225,-1321.6771 393.0225,-1312.7985"/>
<polygon fill="#000000" stroke="#000000" points="396.5226,-1312.5946 393.0225,-1302.5947 389.5226,-1312.5947 396.5226,-1312.5946"/>
</g>
<!-- 109 -->
<g id="node19" class="node">
<title>109</title>
<polygon fill="none" stroke="#000000" points="248,-1442.5 248,-1508.5 388.0449,-1508.5 388.0449,-1442.5 248,-1442.5"/>
<text text-anchor="middle" x="284.5" y="-1482.3" font-family="Times,serif" font-size="14.00" fill="#000000">#109</text>
<polyline fill="none" stroke="#000000" points="321,-1464.5 321,-1508.5 "/>
<text text-anchor="middle" x="354.5" y="-1493.3" font-family="Times,serif" font-size="14.00" fill="#000000"> </text>
<polyline fill="none" stroke="#000000" points="321,-1486.5 388,-1486.5 "/>
<text text-anchor="middle" x="354.5" y="-1471.3" font-family="Times,serif" font-size="14.00" fill="#000000">Dot</text>
<polyline fill="none" stroke="#000000" points="248,-1464.5 388.0449,-1464.5 "/>
<text text-anchor="middle" x="318.0225" y="-1449.3" font-family="Times,serif" font-size="14.00" fill="#000000">r:1; s:[100,1024]; b:&#45;1</text>
</g>
<!-- 109&#45;&gt;111 -->
<g id="edge18" class="edge">
<title>109&#45;&gt;111</title>
<path fill="none" stroke="#000000" d="M342.1658,-1442.3432C348.7898,-1433.2462 356.0534,-1423.2708 362.9655,-1413.7782"/>
<polygon fill="#000000" stroke="#000000" points="365.8674,-1415.7389 368.9244,-1405.5947 360.2086,-1411.6184 365.8674,-1415.7389"/>
</g>
<!-- 86 -->
<g id="node20" class="node">
<title>86</title>
<polygon fill="none" stroke="#000000" points="406,-1442.5 406,-1508.5 532.0449,-1508.5 532.0449,-1442.5 406,-1442.5"/>
<text text-anchor="middle" x="434.5" y="-1482.3" font-family="Times,serif" font-size="14.00" fill="#000000">#86</text>
<polyline fill="none" stroke="#000000" points="463,-1464.5 463,-1508.5 "/>
<text text-anchor="middle" x="497.438" y="-1493.3" font-family="Times,serif" font-size="14.00" fill="#000000"> </text>
<polyline fill="none" stroke="#000000" points="463,-1486.5 531.876,-1486.5 "/>
<text text-anchor="middle" x="497.438" y="-1471.3" font-family="Times,serif" font-size="14.00" fill="#000000">Zeros</text>
<polyline fill="none" stroke="#000000" points="406,-1464.5 532.0449,-1464.5 "/>
<text text-anchor="middle" x="469.0225" y="-1449.3" font-family="Times,serif" font-size="14.00" fill="#000000">r:1; s:[1,1024]; b:&#45;1</text>
</g>
<!-- 86&#45;&gt;111 -->
<g id="edge19" class="edge">
<title>86&#45;&gt;111</title>
<path fill="none" stroke="#000000" d="M444.5572,-1442.3432C437.8449,-1433.2462 430.4844,-1423.2708 423.4802,-1413.7782"/>
<polygon fill="#000000" stroke="#000000" points="426.1955,-1411.5633 417.4418,-1405.5947 420.5629,-1415.7194 426.1955,-1411.5633"/>
</g>
<!-- 105 -->
<g id="node21" class="node">
<title>105</title>
<polygon fill="none" stroke="#000000" points="167,-1545.5 167,-1611.5 307.0449,-1611.5 307.0449,-1545.5 167,-1545.5"/>
<text text-anchor="middle" x="197" y="-1585.3" font-family="Times,serif" font-size="14.00" fill="#000000">#105</text>
<polyline fill="none" stroke="#000000" points="227,-1567.5 227,-1611.5 "/>
<text text-anchor="middle" x="266.7139" y="-1596.3" font-family="Times,serif" font-size="14.00" fill="#000000"> </text>
<polyline fill="none" stroke="#000000" points="227,-1589.5 306.4277,-1589.5 "/>
<text text-anchor="middle" x="266.7139" y="-1574.3" font-family="Times,serif" font-size="14.00" fill="#000000">Reshape</text>
<polyline fill="none" stroke="#000000" points="167,-1567.5 307.0449,-1567.5 "/>
<text text-anchor="middle" x="237.0225" y="-1552.3" font-family="Times,serif" font-size="14.00" fill="#000000">r:1; s:[100,6272]; b:&#45;1</text>
</g>
<!-- 105&#45;&gt;109 -->
<g id="edge20" class="edge">
<title>105&#45;&gt;109</title>
<path fill="none" stroke="#000000" d="M263.0972,-1545.3432C270.3235,-1536.1543 278.2544,-1526.0692 285.7871,-1516.4907"/>
<polygon fill="#000000" stroke="#000000" points="288.5661,-1518.6188 291.9965,-1508.5947 283.0637,-1514.2917 288.5661,-1518.6188"/>
</g>
<!-- 85 -->
<g id="node22" class="node">
<title>85</title>
<polygon fill="none" stroke="#000000" points="330.5,-1545.5 330.5,-1611.5 477.5449,-1611.5 477.5449,-1545.5 330.5,-1545.5"/>
<text text-anchor="middle" x="360" y="-1585.3" font-family="Times,serif" font-size="14.00" fill="#000000">#85</text>
<polyline fill="none" stroke="#000000" points="389.5,-1567.5 389.5,-1611.5 "/>
<text text-anchor="middle" x="433.1069" y="-1596.3" font-family="Times,serif" font-size="14.00" fill="#000000"> </text>
<polyline fill="none" stroke="#000000" points="389.5,-1589.5 476.7139,-1589.5 "/>
<text text-anchor="middle" x="433.1069" y="-1574.3" font-family="Times,serif" font-size="14.00" fill="#000000">Uniform</text>
<polyline fill="none" stroke="#000000" points="330.5,-1567.5 477.5449,-1567.5 "/>
<text text-anchor="middle" x="404.0225" y="-1552.3" font-family="Times,serif" font-size="14.00" fill="#000000">r:1; s:[6272,1024]; b:&#45;1</text>
</g>
<!-- 85&#45;&gt;109 -->
<g id="edge21" class="edge">
<title>85&#45;&gt;109</title>
<path fill="none" stroke="#000000" d="M376.3381,-1545.3432C368.6659,-1536.1543 360.2453,-1526.0692 352.2477,-1516.4907"/>
<polygon fill="#000000" stroke="#000000" points="354.7508,-1514.0276 345.6549,-1508.5947 349.3775,-1518.514 354.7508,-1514.0276"/>
</g>
<!-- 103 -->
<g id="node23" class="node">
<title>103</title>
<polygon fill="none" stroke="#000000" points="151.5,-1648.5 151.5,-1714.5 312.5449,-1714.5 312.5449,-1648.5 151.5,-1648.5"/>
<text text-anchor="middle" x="182" y="-1688.3" font-family="Times,serif" font-size="14.00" fill="#000000">#103</text>
<polyline fill="none" stroke="#000000" points="212.5,-1670.5 212.5,-1714.5 "/>
<text text-anchor="middle" x="262.1689" y="-1699.3" font-family="Times,serif" font-size="14.00" fill="#000000"> </text>
<polyline fill="none" stroke="#000000" points="212.5,-1692.5 311.8379,-1692.5 "/>
<text text-anchor="middle" x="262.1689" y="-1677.3" font-family="Times,serif" font-size="14.00" fill="#000000">MaxPool2d</text>
<polyline fill="none" stroke="#000000" points="151.5,-1670.5 312.5449,-1670.5 "/>
<text text-anchor="middle" x="232.0225" y="-1655.3" font-family="Times,serif" font-size="14.00" fill="#000000">r:1; s:[100,14,14,32]; b:&#45;1</text>
</g>
<!-- 103&#45;&gt;105 -->
<g id="edge22" class="edge">
<title>103&#45;&gt;105</title>
<path fill="none" stroke="#000000" d="M233.632,-1648.3432C234.0424,-1639.8894 234.4896,-1630.6771 234.9206,-1621.7985"/>
<polygon fill="#000000" stroke="#000000" points="238.4268,-1621.7527 235.4159,-1611.5947 231.4351,-1621.4132 238.4268,-1621.7527"/>
</g>
<!-- 101 -->
<g id="node24" class="node">
<title>101</title>
<polygon fill="none" stroke="#000000" points="151.5,-1751.5 151.5,-1817.5 312.5449,-1817.5 312.5449,-1751.5 151.5,-1751.5"/>
<text text-anchor="middle" x="192" y="-1791.3" font-family="Times,serif" font-size="14.00" fill="#000000">#101</text>
<polyline fill="none" stroke="#000000" points="232.5,-1773.5 232.5,-1817.5 "/>
<text text-anchor="middle" x="272.2207" y="-1802.3" font-family="Times,serif" font-size="14.00" fill="#000000"> </text>
<polyline fill="none" stroke="#000000" points="232.5,-1795.5 311.9414,-1795.5 "/>
<text text-anchor="middle" x="272.2207" y="-1780.3" font-family="Times,serif" font-size="14.00" fill="#000000">Relu</text>
<polyline fill="none" stroke="#000000" points="151.5,-1773.5 312.5449,-1773.5 "/>
<text text-anchor="middle" x="232.0225" y="-1758.3" font-family="Times,serif" font-size="14.00" fill="#000000">r:1; s:[100,28,28,32]; b:&#45;1</text>
</g>
<!-- 101&#45;&gt;103 -->
<g id="edge23" class="edge">
<title>101&#45;&gt;103</title>
<path fill="none" stroke="#000000" d="M232.0225,-1751.3432C232.0225,-1742.8894 232.0225,-1733.6771 232.0225,-1724.7985"/>
<polygon fill="#000000" stroke="#000000" points="235.5226,-1724.5946 232.0225,-1714.5947 228.5226,-1724.5947 235.5226,-1724.5946"/>
</g>
<!-- 99 -->
<g id="node25" class="node">
<title>99</title>
<polygon fill="none" stroke="#000000" points="151.5,-1854.5 151.5,-1920.5 312.5449,-1920.5 312.5449,-1854.5 151.5,-1854.5"/>
<text text-anchor="middle" x="190.5" y="-1894.3" font-family="Times,serif" font-size="14.00" fill="#000000">#99</text>
<polyline fill="none" stroke="#000000" points="229.5,-1876.5 229.5,-1920.5 "/>
<text text-anchor="middle" x="270.5552" y="-1905.3" font-family="Times,serif" font-size="14.00" fill="#000000"> </text>
<polyline fill="none" stroke="#000000" points="229.5,-1898.5 311.6104,-1898.5 "/>
<text text-anchor="middle" x="270.5552" y="-1883.3" font-family="Times,serif" font-size="14.00" fill="#000000">Add</text>
<polyline fill="none" stroke="#000000" points="151.5,-1876.5 312.5449,-1876.5 "/>
<text text-anchor="middle" x="232.0225" y="-1861.3" font-family="Times,serif" font-size="14.00" fill="#000000">r:1; s:[100,28,28,32]; b:&#45;1</text>
</g>
<!-- 99&#45;&gt;101 -->
<g id="edge24" class="edge">
<title>99&#45;&gt;101</title>
<path fill="none" stroke="#000000" d="M232.0225,-1854.3432C232.0225,-1845.8894 232.0225,-1836.6771 232.0225,-1827.7985"/>
<polygon fill="#000000" stroke="#000000" points="235.5226,-1827.5946 232.0225,-1817.5947 228.5226,-1827.5947 235.5226,-1827.5946"/>
</g>
<!-- 97 -->
<g id="node26" class="node">
<title>97</title>
<polygon fill="none" stroke="#000000" points="77.5,-1957.5 77.5,-2023.5 238.5449,-2023.5 238.5449,-1957.5 77.5,-1957.5"/>
<text text-anchor="middle" x="111.5" y="-1997.3" font-family="Times,serif" font-size="14.00" fill="#000000">#97</text>
<polyline fill="none" stroke="#000000" points="145.5,-1979.5 145.5,-2023.5 "/>
<text text-anchor="middle" x="191.6689" y="-2008.3" font-family="Times,serif" font-size="14.00" fill="#000000"> </text>
<polyline fill="none" stroke="#000000" points="145.5,-2001.5 237.8379,-2001.5 "/>
<text text-anchor="middle" x="191.6689" y="-1986.3" font-family="Times,serif" font-size="14.00" fill="#000000">Conv2d</text>
<polyline fill="none" stroke="#000000" points="77.5,-1979.5 238.5449,-1979.5 "/>
<text text-anchor="middle" x="158.0225" y="-1964.3" font-family="Times,serif" font-size="14.00" fill="#000000">r:1; s:[100,28,28,32]; b:&#45;1</text>
</g>
<!-- 97&#45;&gt;99 -->
<g id="edge25" class="edge">
<title>97&#45;&gt;99</title>
<path fill="none" stroke="#000000" d="M181.8439,-1957.3432C188.3796,-1948.2462 195.5463,-1938.2708 202.3663,-1928.7782"/>
<polygon fill="#000000" stroke="#000000" points="205.2534,-1930.7582 208.2457,-1920.5947 199.5685,-1926.6739 205.2534,-1930.7582"/>
</g>
<!-- 82 -->
<g id="node27" class="node">
<title>82</title>
<polygon fill="none" stroke="#000000" points="256.25,-1957.5 256.25,-2023.5 357.7949,-2023.5 357.7949,-1957.5 256.25,-1957.5"/>
<text text-anchor="middle" x="278.75" y="-1997.3" font-family="Times,serif" font-size="14.00" fill="#000000">#82</text>
<polyline fill="none" stroke="#000000" points="301.25,-1979.5 301.25,-2023.5 "/>
<text text-anchor="middle" x="329.188" y="-2008.3" font-family="Times,serif" font-size="14.00" fill="#000000"> </text>
<polyline fill="none" stroke="#000000" points="301.25,-2001.5 357.126,-2001.5 "/>
<text text-anchor="middle" x="329.188" y="-1986.3" font-family="Times,serif" font-size="14.00" fill="#000000">Zeros</text>
<polyline fill="none" stroke="#000000" points="256.25,-1979.5 357.7949,-1979.5 "/>
<text text-anchor="middle" x="307.0225" y="-1964.3" font-family="Times,serif" font-size="14.00" fill="#000000">r:1; s:[32]; b:&#45;1</text>
</g>
<!-- 82&#45;&gt;99 -->
<g id="edge26" class="edge">
<title>82&#45;&gt;99</title>
<path fill="none" stroke="#000000" d="M282.8792,-1957.3432C276.2551,-1948.2462 268.9915,-1938.2708 262.0794,-1928.7782"/>
<polygon fill="#000000" stroke="#000000" points="264.8363,-1926.6184 256.1205,-1920.5947 259.1776,-1930.7389 264.8363,-1926.6184"/>
</g>
<!-- 77 -->
<g id="node28" class="node">
<title>77</title>
<polygon fill="none" stroke="#000000" points="0,-2060.5 0,-2126.5 154.0449,-2126.5 154.0449,-2060.5 0,-2060.5"/>
<text text-anchor="middle" x="38.5" y="-2100.3" font-family="Times,serif" font-size="14.00" fill="#000000">#77</text>
<polyline fill="none" stroke="#000000" points="77,-2082.5 77,-2126.5 "/>
<text text-anchor="middle" x="115.2173" y="-2111.3" font-family="Times,serif" font-size="14.00" fill="#000000">xt</text>
<polyline fill="none" stroke="#000000" points="77,-2104.5 153.4346,-2104.5 "/>
<text text-anchor="middle" x="115.2173" y="-2089.3" font-family="Times,serif" font-size="14.00" fill="#000000">Var</text>
<polyline fill="none" stroke="#000000" points="0,-2082.5 154.0449,-2082.5 "/>
<text text-anchor="middle" x="77.0225" y="-2067.3" font-family="Times,serif" font-size="14.00" fill="#000000">r:1; s:[100,28,28,1]; b:&#45;1</text>
</g>
<!-- 77&#45;&gt;97 -->
<g id="edge27" class="edge">
<title>77&#45;&gt;97</title>
<path fill="none" stroke="#000000" d="M103.0972,-2060.3432C110.3235,-2051.1543 118.2544,-2041.0692 125.7871,-2031.4907"/>
<polygon fill="#000000" stroke="#000000" points="128.5661,-2033.6188 131.9965,-2023.5947 123.0637,-2029.2917 128.5661,-2033.6188"/>
</g>
<!-- 81 -->
<g id="node29" class="node">
<title>81</title>
<polygon fill="none" stroke="#000000" points="172.5,-2060.5 172.5,-2126.5 305.5449,-2126.5 305.5449,-2060.5 172.5,-2060.5"/>
<text text-anchor="middle" x="198.5" y="-2100.3" font-family="Times,serif" font-size="14.00" fill="#000000">#81</text>
<polyline fill="none" stroke="#000000" points="224.5,-2082.5 224.5,-2126.5 "/>
<text text-anchor="middle" x="264.6069" y="-2111.3" font-family="Times,serif" font-size="14.00" fill="#000000"> </text>
<polyline fill="none" stroke="#000000" points="224.5,-2104.5 304.7139,-2104.5 "/>
<text text-anchor="middle" x="264.6069" y="-2089.3" font-family="Times,serif" font-size="14.00" fill="#000000">Uniform</text>
<polyline fill="none" stroke="#000000" points="172.5,-2082.5 305.5449,-2082.5 "/>
<text text-anchor="middle" x="239.0225" y="-2067.3" font-family="Times,serif" font-size="14.00" fill="#000000">r:1; s:[5,5,1,32]; b:&#45;1</text>
</g>
<!-- 81&#45;&gt;97 -->
<g id="edge28" class="edge">
<title>81&#45;&gt;97</title>
<path fill="none" stroke="#000000" d="M212.9477,-2060.3432C205.7215,-2051.1543 197.7905,-2041.0692 190.2579,-2031.4907"/>
<polygon fill="#000000" stroke="#000000" points="192.9812,-2029.2917 184.0484,-2023.5947 187.4788,-2033.6188 192.9812,-2029.2917"/>
</g>
<!-- 80 -->
<g id="node30" class="node">
<title>80</title>
<polygon fill="none" stroke="#000000" points="84.8862,-2163.5 84.8862,-2229.5 231.1587,-2229.5 231.1587,-2163.5 84.8862,-2163.5"/>
<text text-anchor="middle" x="118.3862" y="-2203.3" font-family="Times,serif" font-size="14.00" fill="#000000">#80</text>
<polyline fill="none" stroke="#000000" points="151.8862,-2185.5 151.8862,-2229.5 "/>
<text text-anchor="middle" x="191.2241" y="-2214.3" font-family="Times,serif" font-size="14.00" fill="#000000"> </text>
<polyline fill="none" stroke="#000000" points="151.8862,-2207.5 230.562,-2207.5 "/>
<text text-anchor="middle" x="191.2241" y="-2192.3" font-family="Times,serif" font-size="14.00" fill="#000000">Const</text>
<polyline fill="none" stroke="#000000" points="84.8862,-2185.5 231.1587,-2185.5 "/>
<text text-anchor="middle" x="158.0225" y="-2170.3" font-family="Times,serif" font-size="14.00" fill="#000000">r:0; v:&#45;0.0852803; b:16</text>
</g>
<!-- 80&#45;&gt;81 -->
<g id="edge29" class="edge">
<title>80&#45;&gt;81</title>
<path fill="none" stroke="#000000" d="M184.0972,-2163.3432C191.3235,-2154.1543 199.2544,-2144.0692 206.7871,-2134.4907"/>
<polygon fill="#000000" stroke="#000000" points="209.5661,-2136.6188 212.9965,-2126.5947 204.0637,-2132.2917 209.5661,-2136.6188"/>
</g>
<!-- 79 -->
<g id="node31" class="node">
<title>79</title>
<polygon fill="none" stroke="#000000" points="249.2173,-2163.5 249.2173,-2229.5 390.8276,-2229.5 390.8276,-2163.5 249.2173,-2163.5"/>
<text text-anchor="middle" x="281.2173" y="-2203.3" font-family="Times,serif" font-size="14.00" fill="#000000">#79</text>
<polyline fill="none" stroke="#000000" points="313.2173,-2185.5 313.2173,-2229.5 "/>
<text text-anchor="middle" x="351.5552" y="-2214.3" font-family="Times,serif" font-size="14.00" fill="#000000"> </text>
<polyline fill="none" stroke="#000000" points="313.2173,-2207.5 389.8931,-2207.5 "/>
<text text-anchor="middle" x="351.5552" y="-2192.3" font-family="Times,serif" font-size="14.00" fill="#000000">Const</text>
<polyline fill="none" stroke="#000000" points="249.2173,-2185.5 390.8276,-2185.5 "/>
<text text-anchor="middle" x="320.0225" y="-2170.3" font-family="Times,serif" font-size="14.00" fill="#000000">r:0; v:0.0852803; b:15</text>
</g>
<!-- 79&#45;&gt;81 -->
<g id="edge30" class="edge">
<title>79&#45;&gt;81</title>
<path fill="none" stroke="#000000" d="M293.9477,-2163.3432C286.7215,-2154.1543 278.7905,-2144.0692 271.2579,-2134.4907"/>
<polygon fill="#000000" stroke="#000000" points="273.9812,-2132.2917 265.0484,-2126.5947 268.4788,-2136.6188 273.9812,-2132.2917"/>
</g>
<!-- 84 -->
<g id="node32" class="node">
<title>84</title>
<polygon fill="none" stroke="#000000" points="330.8862,-1648.5 330.8862,-1714.5 477.1587,-1714.5 477.1587,-1648.5 330.8862,-1648.5"/>
<text text-anchor="middle" x="364.3862" y="-1688.3" font-family="Times,serif" font-size="14.00" fill="#000000">#84</text>
<polyline fill="none" stroke="#000000" points="397.8862,-1670.5 397.8862,-1714.5 "/>
<text text-anchor="middle" x="437.2241" y="-1699.3" font-family="Times,serif" font-size="14.00" fill="#000000"> </text>
<polyline fill="none" stroke="#000000" points="397.8862,-1692.5 476.562,-1692.5 "/>
<text text-anchor="middle" x="437.2241" y="-1677.3" font-family="Times,serif" font-size="14.00" fill="#000000">Const</text>
<polyline fill="none" stroke="#000000" points="330.8862,-1670.5 477.1587,-1670.5 "/>
<text text-anchor="middle" x="404.0225" y="-1655.3" font-family="Times,serif" font-size="14.00" fill="#000000">r:0; v:&#45;0.0126269; b:18</text>
</g>
<!-- 84&#45;&gt;85 -->
<g id="edge31" class="edge">
<title>84&#45;&gt;85</title>
<path fill="none" stroke="#000000" d="M404.0225,-1648.3432C404.0225,-1639.8894 404.0225,-1630.6771 404.0225,-1621.7985"/>
<polygon fill="#000000" stroke="#000000" points="407.5226,-1621.5946 404.0225,-1611.5947 400.5226,-1621.5947 407.5226,-1621.5946"/>
</g>
<!-- 83 -->
<g id="node33" class="node">
<title>83</title>
<polygon fill="none" stroke="#000000" points="495.2173,-1648.5 495.2173,-1714.5 636.8276,-1714.5 636.8276,-1648.5 495.2173,-1648.5"/>
<text text-anchor="middle" x="527.2173" y="-1688.3" font-family="Times,serif" font-size="14.00" fill="#000000">#83</text>
<polyline fill="none" stroke="#000000" points="559.2173,-1670.5 559.2173,-1714.5 "/>
<text text-anchor="middle" x="597.5552" y="-1699.3" font-family="Times,serif" font-size="14.00" fill="#000000"> </text>
<polyline fill="none" stroke="#000000" points="559.2173,-1692.5 635.8931,-1692.5 "/>
<text text-anchor="middle" x="597.5552" y="-1677.3" font-family="Times,serif" font-size="14.00" fill="#000000">Const</text>
<polyline fill="none" stroke="#000000" points="495.2173,-1670.5 636.8276,-1670.5 "/>
<text text-anchor="middle" x="566.0225" y="-1655.3" font-family="Times,serif" font-size="14.00" fill="#000000">r:0; v:0.0126269; b:17</text>
</g>
<!-- 83&#45;&gt;85 -->
<g id="edge32" class="edge">
<title>83&#45;&gt;85</title>
<path fill="none" stroke="#000000" d="M513.8729,-1648.3432C498.2643,-1638.4192 481.0115,-1627.4499 464.894,-1617.2023"/>
<polygon fill="#000000" stroke="#000000" points="466.391,-1614.0065 456.0743,-1611.5947 462.6352,-1619.9137 466.391,-1614.0065"/>
</g>
<!-- 88 -->
<g id="node34" class="node">
<title>88</title>
<polygon fill="none" stroke="#000000" points="480.8862,-1339.5 480.8862,-1405.5 613.1587,-1405.5 613.1587,-1339.5 480.8862,-1339.5"/>
<text text-anchor="middle" x="510.8862" y="-1379.3" font-family="Times,serif" font-size="14.00" fill="#000000">#88</text>
<polyline fill="none" stroke="#000000" points="540.8862,-1361.5 540.8862,-1405.5 "/>
<text text-anchor="middle" x="576.7241" y="-1390.3" font-family="Times,serif" font-size="14.00" fill="#000000"> </text>
<polyline fill="none" stroke="#000000" points="540.8862,-1383.5 612.562,-1383.5 "/>
<text text-anchor="middle" x="576.7241" y="-1368.3" font-family="Times,serif" font-size="14.00" fill="#000000">Const</text>
<polyline fill="none" stroke="#000000" points="480.8862,-1361.5 613.1587,-1361.5 "/>
<text text-anchor="middle" x="547.0225" y="-1346.3" font-family="Times,serif" font-size="14.00" fill="#000000">r:0; v:&#45;0.03125; b:20</text>
</g>
<!-- 88&#45;&gt;89 -->
<g id="edge33" class="edge">
<title>88&#45;&gt;89</title>
<path fill="none" stroke="#000000" d="M547.3444,-1339.3432C547.4264,-1330.8894 547.5159,-1321.6771 547.6021,-1312.7985"/>
<polygon fill="#000000" stroke="#000000" points="551.1038,-1312.6282 547.7012,-1302.5947 544.1041,-1312.5602 551.1038,-1312.6282"/>
</g>
<!-- 87 -->
<g id="node35" class="node">
<title>87</title>
<polygon fill="none" stroke="#000000" points="631.2173,-1339.5 631.2173,-1405.5 758.8276,-1405.5 758.8276,-1339.5 631.2173,-1339.5"/>
<text text-anchor="middle" x="659.7173" y="-1379.3" font-family="Times,serif" font-size="14.00" fill="#000000">#87</text>
<polyline fill="none" stroke="#000000" points="688.2173,-1361.5 688.2173,-1405.5 "/>
<text text-anchor="middle" x="723.0552" y="-1390.3" font-family="Times,serif" font-size="14.00" fill="#000000"> </text>
<polyline fill="none" stroke="#000000" points="688.2173,-1383.5 757.8931,-1383.5 "/>
<text text-anchor="middle" x="723.0552" y="-1368.3" font-family="Times,serif" font-size="14.00" fill="#000000">Const</text>
<polyline fill="none" stroke="#000000" points="631.2173,-1361.5 758.8276,-1361.5 "/>
<text text-anchor="middle" x="695.0225" y="-1346.3" font-family="Times,serif" font-size="14.00" fill="#000000">r:0; v:0.03125; b:19</text>
</g>
<!-- 87&#45;&gt;89 -->
<g id="edge34" class="edge">
<title>87&#45;&gt;89</title>
<path fill="none" stroke="#000000" d="M647.7016,-1339.3432C633.6693,-1329.5111 618.1727,-1318.6529 603.6643,-1308.4871"/>
<polygon fill="#000000" stroke="#000000" points="605.4528,-1305.4667 595.2547,-1302.5947 601.436,-1311.1995 605.4528,-1305.4667"/>
</g>
</g>
</svg>
