<?xml version="1.0" encoding="UTF-8" standalone="no"?>
<!DOCTYPE svg PUBLIC "-//W3C//DTD SVG 1.1//EN"
 "http://www.w3.org/Graphics/SVG/1.1/DTD/svg11.dtd">
<!-- Generated by graphviz version 2.40.1 (20161225.0304)
 -->
<!-- Title: CG Pages: 1 -->
<svg width="922pt" height="796pt"
 viewBox="0.00 0.00 922.16 796.00" xmlns="http://www.w3.org/2000/svg" xmlns:xlink="http://www.w3.org/1999/xlink">
<g id="graph0" class="graph" transform="scale(1 1) rotate(0) translate(4 792)">
<title>CG</title>
<polygon fill="#ffffff" stroke="transparent" points="-4,4 -4,-792 918.1553,-792 918.1553,4 -4,4"/>
<!-- 1050 -->
<g id="node1" class="node">
<title>1050</title>
<polygon fill="none" stroke="#000000" points="349.6655,-103.5 349.6655,-169.5 478.4897,-169.5 478.4897,-103.5 349.6655,-103.5"/>
<text text-anchor="middle" x="375.1655" y="-143.3" font-family="Times,serif" font-size="14.00" fill="#000000">#1050</text>
<polyline fill="none" stroke="#000000" points="400.6655,-125.5 400.6655,-169.5 "/>
<text text-anchor="middle" x="439.5776" y="-154.3" font-family="Times,serif" font-size="14.00" fill="#000000"> </text>
<polyline fill="none" stroke="#000000" points="400.6655,-147.5 478.4897,-147.5 "/>
<text text-anchor="middle" x="439.5776" y="-132.3" font-family="Times,serif" font-size="14.00" fill="#000000">Scalar Add</text>
<polyline fill="none" stroke="#000000" points="349.6655,-125.5 478.4897,-125.5 "/>
<text text-anchor="middle" x="414.0776" y="-110.3" font-family="Times,serif" font-size="14.00" fill="#000000">r:1; s:[]; b:&#45;1</text>
</g>
<!-- 1060 -->
<g id="node2" class="node">
<title>1060</title>
<polygon fill="none" stroke="#000000" points="424.6655,-.5 424.6655,-66.5 553.4897,-66.5 553.4897,-.5 424.6655,-.5"/>
<text text-anchor="middle" x="450.1655" y="-40.3" font-family="Times,serif" font-size="14.00" fill="#000000">#1060</text>
<polyline fill="none" stroke="#000000" points="475.6655,-22.5 475.6655,-66.5 "/>
<text text-anchor="middle" x="514.5776" y="-51.3" font-family="Times,serif" font-size="14.00" fill="#000000"> </text>
<polyline fill="none" stroke="#000000" points="475.6655,-44.5 553.4897,-44.5 "/>
<text text-anchor="middle" x="514.5776" y="-29.3" font-family="Times,serif" font-size="14.00" fill="#000000">Scalar Add</text>
<polyline fill="none" stroke="#000000" points="424.6655,-22.5 553.4897,-22.5 "/>
<text text-anchor="middle" x="489.0776" y="-7.3" font-family="Times,serif" font-size="14.00" fill="#000000">r:0; s:[]; b:&#45;1</text>
</g>
<!-- 1050&#45;&gt;1060 -->
<g id="edge1" class="edge">
<title>1050&#45;&gt;1060</title>
<path fill="none" stroke="#000000" d="M438.2209,-103.3432C444.845,-94.2462 452.1086,-84.2708 459.0207,-74.7782"/>
<polygon fill="#000000" stroke="#000000" points="461.9225,-76.7389 464.9796,-66.5947 456.2637,-72.6184 461.9225,-76.7389"/>
</g>
<!-- 1059 -->
<g id="node3" class="node">
<title>1059</title>
<polygon fill="none" stroke="#000000" points="508.4854,-103.5 508.4854,-169.5 645.6699,-169.5 645.6699,-103.5 508.4854,-103.5"/>
<text text-anchor="middle" x="533.9854" y="-143.3" font-family="Times,serif" font-size="14.00" fill="#000000">#1059</text>
<polyline fill="none" stroke="#000000" points="559.4854,-125.5 559.4854,-169.5 "/>
<text text-anchor="middle" x="602.5776" y="-154.3" font-family="Times,serif" font-size="14.00" fill="#000000"> </text>
<polyline fill="none" stroke="#000000" points="559.4854,-147.5 645.6699,-147.5 "/>
<text text-anchor="middle" x="602.5776" y="-132.3" font-family="Times,serif" font-size="14.00" fill="#000000">L2NormSqr&#39;</text>
<polyline fill="none" stroke="#000000" points="508.4854,-125.5 645.6699,-125.5 "/>
<text text-anchor="middle" x="577.0776" y="-110.3" font-family="Times,serif" font-size="14.00" fill="#000000">r:1; s:[]; b:&#45;1</text>
</g>
<!-- 1059&#45;&gt;1060 -->
<g id="edge2" class="edge">
<title>1059&#45;&gt;1060</title>
<path fill="none" stroke="#000000" d="M548.7495,-103.3432C540.8203,-94.0624 532.11,-83.8674 523.8534,-74.2035"/>
<polygon fill="#000000" stroke="#000000" points="526.5095,-71.9242 517.3527,-66.5947 521.1874,-76.4712 526.5095,-71.9242"/>
</g>
<!-- 1040 -->
<g id="node4" class="node">
<title>1040</title>
<polygon fill="none" stroke="#000000" points="349.6655,-206.5 349.6655,-272.5 478.4897,-272.5 478.4897,-206.5 349.6655,-206.5"/>
<text text-anchor="middle" x="375.1655" y="-246.3" font-family="Times,serif" font-size="14.00" fill="#000000">#1040</text>
<polyline fill="none" stroke="#000000" points="400.6655,-228.5 400.6655,-272.5 "/>
<text text-anchor="middle" x="439.5776" y="-257.3" font-family="Times,serif" font-size="14.00" fill="#000000"> </text>
<polyline fill="none" stroke="#000000" points="400.6655,-250.5 478.4897,-250.5 "/>
<text text-anchor="middle" x="439.5776" y="-235.3" font-family="Times,serif" font-size="14.00" fill="#000000">Scalar Add</text>
<polyline fill="none" stroke="#000000" points="349.6655,-228.5 478.4897,-228.5 "/>
<text text-anchor="middle" x="414.0776" y="-213.3" font-family="Times,serif" font-size="14.00" fill="#000000">r:1; s:[]; b:&#45;1</text>
</g>
<!-- 1040&#45;&gt;1050 -->
<g id="edge3" class="edge">
<title>1040&#45;&gt;1050</title>
<path fill="none" stroke="#000000" d="M414.0776,-206.3432C414.0776,-197.8894 414.0776,-188.6771 414.0776,-179.7985"/>
<polygon fill="#000000" stroke="#000000" points="417.5777,-179.5946 414.0776,-169.5947 410.5777,-179.5947 417.5777,-179.5946"/>
</g>
<!-- 1049 -->
<g id="node5" class="node">
<title>1049</title>
<polygon fill="none" stroke="#000000" points="171.4854,-206.5 171.4854,-272.5 308.6699,-272.5 308.6699,-206.5 171.4854,-206.5"/>
<text text-anchor="middle" x="196.9854" y="-246.3" font-family="Times,serif" font-size="14.00" fill="#000000">#1049</text>
<polyline fill="none" stroke="#000000" points="222.4854,-228.5 222.4854,-272.5 "/>
<text text-anchor="middle" x="265.5776" y="-257.3" font-family="Times,serif" font-size="14.00" fill="#000000"> </text>
<polyline fill="none" stroke="#000000" points="222.4854,-250.5 308.6699,-250.5 "/>
<text text-anchor="middle" x="265.5776" y="-235.3" font-family="Times,serif" font-size="14.00" fill="#000000">L2NormSqr&#39;</text>
<polyline fill="none" stroke="#000000" points="171.4854,-228.5 308.6699,-228.5 "/>
<text text-anchor="middle" x="240.0776" y="-213.3" font-family="Times,serif" font-size="14.00" fill="#000000">r:1; s:[]; b:&#45;1</text>
</g>
<!-- 1049&#45;&gt;1050 -->
<g id="edge4" class="edge">
<title>1049&#45;&gt;1050</title>
<path fill="none" stroke="#000000" d="M296.0901,-206.3432C313.0102,-196.3273 331.729,-185.2466 349.1776,-174.9178"/>
<polygon fill="#000000" stroke="#000000" points="351.3477,-177.7006 358.1701,-169.5947 347.7819,-171.6768 351.3477,-177.7006"/>
</g>
<!-- 1033 -->
<g id="node6" class="node">
<title>1033</title>
<polygon fill="none" stroke="#000000" points="264.2397,-309.5 264.2397,-375.5 363.9155,-375.5 363.9155,-309.5 264.2397,-309.5"/>
<text text-anchor="middle" x="289.7397" y="-349.3" font-family="Times,serif" font-size="14.00" fill="#000000">#1033</text>
<polyline fill="none" stroke="#000000" points="315.2397,-331.5 315.2397,-375.5 "/>
<text text-anchor="middle" x="339.5776" y="-360.3" font-family="Times,serif" font-size="14.00" fill="#000000"> </text>
<polyline fill="none" stroke="#000000" points="315.2397,-353.5 363.9155,-353.5 "/>
<text text-anchor="middle" x="339.5776" y="-338.3" font-family="Times,serif" font-size="14.00" fill="#000000">Const</text>
<polyline fill="none" stroke="#000000" points="264.2397,-331.5 363.9155,-331.5 "/>
<text text-anchor="middle" x="314.0776" y="-316.3" font-family="Times,serif" font-size="14.00" fill="#000000">r:0; v:0; b:1</text>
</g>
<!-- 1033&#45;&gt;1040 -->
<g id="edge5" class="edge">
<title>1033&#45;&gt;1040</title>
<path fill="none" stroke="#000000" d="M346.2687,-309.3432C355.3684,-299.9705 365.3733,-289.6654 374.8382,-279.9166"/>
<polygon fill="#000000" stroke="#000000" points="377.4922,-282.2075 381.9469,-272.5947 372.4699,-277.3314 377.4922,-282.2075"/>
</g>
<!-- 1039 -->
<g id="node7" class="node">
<title>1039</title>
<polygon fill="none" stroke="#000000" points="381.4854,-309.5 381.4854,-375.5 518.6699,-375.5 518.6699,-309.5 381.4854,-309.5"/>
<text text-anchor="middle" x="406.9854" y="-349.3" font-family="Times,serif" font-size="14.00" fill="#000000">#1039</text>
<polyline fill="none" stroke="#000000" points="432.4854,-331.5 432.4854,-375.5 "/>
<text text-anchor="middle" x="475.5776" y="-360.3" font-family="Times,serif" font-size="14.00" fill="#000000"> </text>
<polyline fill="none" stroke="#000000" points="432.4854,-353.5 518.6699,-353.5 "/>
<text text-anchor="middle" x="475.5776" y="-338.3" font-family="Times,serif" font-size="14.00" fill="#000000">L2NormSqr&#39;</text>
<polyline fill="none" stroke="#000000" points="381.4854,-331.5 518.6699,-331.5 "/>
<text text-anchor="middle" x="450.0776" y="-316.3" font-family="Times,serif" font-size="14.00" fill="#000000">r:1; s:[]; b:&#45;1</text>
</g>
<!-- 1039&#45;&gt;1040 -->
<g id="edge6" class="edge">
<title>1039&#45;&gt;1040</title>
<path fill="none" stroke="#000000" d="M438.4889,-309.3432C435.4699,-300.7056 432.1742,-291.2762 429.0089,-282.22"/>
<polygon fill="#000000" stroke="#000000" points="432.2482,-280.8799 425.6447,-272.5947 425.6402,-283.1895 432.2482,-280.8799"/>
</g>
<!-- 1038 -->
<g id="node8" class="node">
<title>1038</title>
<polygon fill="none" stroke="#000000" points="341.5552,-412.5 341.5552,-478.5 446.6001,-478.5 446.6001,-412.5 341.5552,-412.5"/>
<text text-anchor="middle" x="371.0552" y="-452.3" font-family="Times,serif" font-size="14.00" fill="#000000">#1038</text>
<polyline fill="none" stroke="#000000" points="400.5552,-434.5 400.5552,-478.5 "/>
<text text-anchor="middle" x="423.4482" y="-463.3" font-family="Times,serif" font-size="14.00" fill="#000000"> </text>
<polyline fill="none" stroke="#000000" points="400.5552,-456.5 446.3413,-456.5 "/>
<text text-anchor="middle" x="423.4482" y="-441.3" font-family="Times,serif" font-size="14.00" fill="#000000">Sub</text>
<polyline fill="none" stroke="#000000" points="341.5552,-434.5 446.6001,-434.5 "/>
<text text-anchor="middle" x="394.0776" y="-419.3" font-family="Times,serif" font-size="14.00" fill="#000000">r:1; s:[2,1]; b:&#45;1</text>
</g>
<!-- 1038&#45;&gt;1039 -->
<g id="edge7" class="edge">
<title>1038&#45;&gt;1039</title>
<path fill="none" stroke="#000000" d="M412.1046,-412.3432C416.9007,-403.5219 422.1458,-393.8746 427.1652,-384.6425"/>
<polygon fill="#000000" stroke="#000000" points="430.3827,-386.052 432.0844,-375.5947 424.2329,-382.7083 430.3827,-386.052"/>
</g>
<!-- 1032 -->
<g id="node9" class="node">
<title>1032</title>
<polygon fill="none" stroke="#000000" points="422.5552,-515.5 422.5552,-581.5 527.6001,-581.5 527.6001,-515.5 422.5552,-515.5"/>
<text text-anchor="middle" x="452.5552" y="-555.3" font-family="Times,serif" font-size="14.00" fill="#000000">#1032</text>
<polyline fill="none" stroke="#000000" points="482.5552,-537.5 482.5552,-581.5 "/>
<text text-anchor="middle" x="504.7725" y="-566.3" font-family="Times,serif" font-size="14.00" fill="#000000">x0</text>
<polyline fill="none" stroke="#000000" points="482.5552,-559.5 526.9897,-559.5 "/>
<text text-anchor="middle" x="504.7725" y="-544.3" font-family="Times,serif" font-size="14.00" fill="#000000">Var</text>
<polyline fill="none" stroke="#000000" points="422.5552,-537.5 527.6001,-537.5 "/>
<text text-anchor="middle" x="475.0776" y="-522.3" font-family="Times,serif" font-size="14.00" fill="#000000">r:2; s:[2,1]; b:&#45;1</text>
</g>
<!-- 1032&#45;&gt;1038 -->
<g id="edge8" class="edge">
<title>1032&#45;&gt;1038</title>
<path fill="none" stroke="#000000" d="M449.0029,-515.3432C441.7766,-506.1543 433.8457,-496.0692 426.313,-486.4907"/>
<polygon fill="#000000" stroke="#000000" points="429.0364,-484.2917 420.1036,-478.5947 423.534,-488.6188 429.0364,-484.2917"/>
</g>
<!-- 1043 -->
<g id="node15" class="node">
<title>1043</title>
<polygon fill="none" stroke="#000000" points="464.5552,-412.5 464.5552,-478.5 569.6001,-478.5 569.6001,-412.5 464.5552,-412.5"/>
<text text-anchor="middle" x="494.0552" y="-452.3" font-family="Times,serif" font-size="14.00" fill="#000000">#1043</text>
<polyline fill="none" stroke="#000000" points="523.5552,-434.5 523.5552,-478.5 "/>
<text text-anchor="middle" x="546.5552" y="-463.3" font-family="Times,serif" font-size="14.00" fill="#000000"> </text>
<polyline fill="none" stroke="#000000" points="523.5552,-456.5 569.5552,-456.5 "/>
<text text-anchor="middle" x="546.5552" y="-441.3" font-family="Times,serif" font-size="14.00" fill="#000000">Dot</text>
<polyline fill="none" stroke="#000000" points="464.5552,-434.5 569.6001,-434.5 "/>
<text text-anchor="middle" x="517.0776" y="-419.3" font-family="Times,serif" font-size="14.00" fill="#000000">r:2; s:[2,1]; b:&#45;1</text>
</g>
<!-- 1032&#45;&gt;1043 -->
<g id="edge18" class="edge">
<title>1032&#45;&gt;1043</title>
<path fill="none" stroke="#000000" d="M488.5979,-515.3432C492.1575,-506.6137 496.0469,-497.0755 499.7756,-487.9311"/>
<polygon fill="#000000" stroke="#000000" points="503.0478,-489.176 503.5827,-478.5947 496.5659,-486.5329 503.0478,-489.176"/>
</g>
<!-- 1037 -->
<g id="node10" class="node">
<title>1037</title>
<polygon fill="none" stroke="#000000" points="289.8672,-515.5 289.8672,-581.5 404.2881,-581.5 404.2881,-515.5 289.8672,-515.5"/>
<text text-anchor="middle" x="315.3672" y="-555.3" font-family="Times,serif" font-size="14.00" fill="#000000">#1037</text>
<polyline fill="none" stroke="#000000" points="340.8672,-537.5 340.8672,-581.5 "/>
<text text-anchor="middle" x="372.5776" y="-566.3" font-family="Times,serif" font-size="14.00" fill="#000000"> </text>
<polyline fill="none" stroke="#000000" points="340.8672,-559.5 404.2881,-559.5 "/>
<text text-anchor="middle" x="372.5776" y="-544.3" font-family="Times,serif" font-size="14.00" fill="#000000">OfArray</text>
<polyline fill="none" stroke="#000000" points="289.8672,-537.5 404.2881,-537.5 "/>
<text text-anchor="middle" x="347.0776" y="-522.3" font-family="Times,serif" font-size="14.00" fill="#000000">r:1; s:[2,1]; b:&#45;1</text>
</g>
<!-- 1037&#45;&gt;1038 -->
<g id="edge9" class="edge">
<title>1037&#45;&gt;1038</title>
<path fill="none" stroke="#000000" d="M362.2074,-515.3432C366.1908,-506.6137 370.5432,-497.0755 374.7159,-487.9311"/>
<polygon fill="#000000" stroke="#000000" points="378.009,-489.1453 378.9762,-478.5947 371.6406,-486.2393 378.009,-489.1453"/>
</g>
<!-- 1036 -->
<g id="node11" class="node">
<title>1036</title>
<polygon fill="none" stroke="#000000" points="208.4448,-618.5 208.4448,-684.5 335.7104,-684.5 335.7104,-618.5 208.4448,-618.5"/>
<text text-anchor="middle" x="233.9448" y="-658.3" font-family="Times,serif" font-size="14.00" fill="#000000">#1036</text>
<polyline fill="none" stroke="#000000" points="259.4448,-640.5 259.4448,-684.5 "/>
<text text-anchor="middle" x="297.5776" y="-669.3" font-family="Times,serif" font-size="14.00" fill="#000000"> </text>
<polyline fill="none" stroke="#000000" points="259.4448,-662.5 335.7104,-662.5 "/>
<text text-anchor="middle" x="297.5776" y="-647.3" font-family="Times,serif" font-size="14.00" fill="#000000">Scalar Cos</text>
<polyline fill="none" stroke="#000000" points="208.4448,-640.5 335.7104,-640.5 "/>
<text text-anchor="middle" x="272.0776" y="-625.3" font-family="Times,serif" font-size="14.00" fill="#000000">r:1; s:[]; b:&#45;1</text>
</g>
<!-- 1036&#45;&gt;1037 -->
<g id="edge10" class="edge">
<title>1036&#45;&gt;1037</title>
<path fill="none" stroke="#000000" d="M296.2209,-618.3432C302.845,-609.2462 310.1086,-599.2708 317.0207,-589.7782"/>
<polygon fill="#000000" stroke="#000000" points="319.9225,-591.7389 322.9796,-581.5947 314.2637,-587.6184 319.9225,-591.7389"/>
</g>
<!-- 1035 -->
<g id="node12" class="node">
<title>1035</title>
<polygon fill="none" stroke="#000000" points="354,-618.5 354,-684.5 478.1553,-684.5 478.1553,-618.5 354,-618.5"/>
<text text-anchor="middle" x="379.5" y="-658.3" font-family="Times,serif" font-size="14.00" fill="#000000">#1035</text>
<polyline fill="none" stroke="#000000" points="405,-640.5 405,-684.5 "/>
<text text-anchor="middle" x="441.5776" y="-669.3" font-family="Times,serif" font-size="14.00" fill="#000000"> </text>
<polyline fill="none" stroke="#000000" points="405,-662.5 478.1553,-662.5 "/>
<text text-anchor="middle" x="441.5776" y="-647.3" font-family="Times,serif" font-size="14.00" fill="#000000">Scalar Sin</text>
<polyline fill="none" stroke="#000000" points="354,-640.5 478.1553,-640.5 "/>
<text text-anchor="middle" x="416.0776" y="-625.3" font-family="Times,serif" font-size="14.00" fill="#000000">r:1; s:[]; b:&#45;1</text>
</g>
<!-- 1035&#45;&gt;1037 -->
<g id="edge11" class="edge">
<title>1035&#45;&gt;1037</title>
<path fill="none" stroke="#000000" d="M393.8658,-618.3432C387.8332,-609.3381 381.2241,-599.4722 374.9228,-590.066"/>
<polygon fill="#000000" stroke="#000000" points="377.7213,-587.9548 369.2479,-581.5947 371.9057,-591.8507 377.7213,-587.9548"/>
</g>
<!-- 1034 -->
<g id="node13" class="node">
<title>1034</title>
<polygon fill="none" stroke="#000000" points="294.2397,-721.5 294.2397,-787.5 393.9155,-787.5 393.9155,-721.5 294.2397,-721.5"/>
<text text-anchor="middle" x="319.7397" y="-761.3" font-family="Times,serif" font-size="14.00" fill="#000000">#1034</text>
<polyline fill="none" stroke="#000000" points="345.2397,-743.5 345.2397,-787.5 "/>
<text text-anchor="middle" x="369.5776" y="-772.3" font-family="Times,serif" font-size="14.00" fill="#000000"> </text>
<polyline fill="none" stroke="#000000" points="345.2397,-765.5 393.9155,-765.5 "/>
<text text-anchor="middle" x="369.5776" y="-750.3" font-family="Times,serif" font-size="14.00" fill="#000000">Const</text>
<polyline fill="none" stroke="#000000" points="294.2397,-743.5 393.9155,-743.5 "/>
<text text-anchor="middle" x="344.0776" y="-728.3" font-family="Times,serif" font-size="14.00" fill="#000000">r:0; v:0.03; b:2</text>
</g>
<!-- 1034&#45;&gt;1036 -->
<g id="edge12" class="edge">
<title>1034&#45;&gt;1036</title>
<path fill="none" stroke="#000000" d="M320.9001,-721.3432C314.6052,-712.3381 307.7087,-702.4722 301.1335,-693.066"/>
<polygon fill="#000000" stroke="#000000" points="303.8097,-690.7855 295.2118,-684.5947 298.0725,-694.796 303.8097,-690.7855"/>
</g>
<!-- 1034&#45;&gt;1035 -->
<g id="edge13" class="edge">
<title>1034&#45;&gt;1035</title>
<path fill="none" stroke="#000000" d="M367.2552,-721.3432C373.5501,-712.3381 380.4466,-702.4722 387.0218,-693.066"/>
<polygon fill="#000000" stroke="#000000" points="390.0828,-694.796 392.9435,-684.5947 384.3455,-690.7855 390.0828,-694.796"/>
</g>
<!-- 1048 -->
<g id="node14" class="node">
<title>1048</title>
<polygon fill="none" stroke="#000000" points="141.5552,-309.5 141.5552,-375.5 246.6001,-375.5 246.6001,-309.5 141.5552,-309.5"/>
<text text-anchor="middle" x="171.0552" y="-349.3" font-family="Times,serif" font-size="14.00" fill="#000000">#1048</text>
<polyline fill="none" stroke="#000000" points="200.5552,-331.5 200.5552,-375.5 "/>
<text text-anchor="middle" x="223.4482" y="-360.3" font-family="Times,serif" font-size="14.00" fill="#000000"> </text>
<polyline fill="none" stroke="#000000" points="200.5552,-353.5 246.3413,-353.5 "/>
<text text-anchor="middle" x="223.4482" y="-338.3" font-family="Times,serif" font-size="14.00" fill="#000000">Sub</text>
<polyline fill="none" stroke="#000000" points="141.5552,-331.5 246.6001,-331.5 "/>
<text text-anchor="middle" x="194.0776" y="-316.3" font-family="Times,serif" font-size="14.00" fill="#000000">r:1; s:[2,1]; b:&#45;1</text>
</g>
<!-- 1048&#45;&gt;1049 -->
<g id="edge14" class="edge">
<title>1048&#45;&gt;1049</title>
<path fill="none" stroke="#000000" d="M208.8855,-309.3432C212.7841,-300.6137 217.0439,-291.0755 221.1278,-281.9311"/>
<polygon fill="#000000" stroke="#000000" points="224.4154,-283.1527 225.2975,-272.5947 218.0238,-280.2982 224.4154,-283.1527"/>
</g>
<!-- 1043&#45;&gt;1048 -->
<g id="edge15" class="edge">
<title>1043&#45;&gt;1048</title>
<path fill="none" stroke="#000000" d="M464.3217,-415.2088C461.5691,-414.0458 458.8116,-412.9663 456.0776,-412 373.5178,-382.8216 342.8143,-404.5877 256.4959,-376.1092"/>
<polygon fill="#000000" stroke="#000000" points="257.4282,-372.7288 246.8335,-372.7912 255.1547,-379.3494 257.4282,-372.7288"/>
</g>
<!-- 1053 -->
<g id="node22" class="node">
<title>1053</title>
<polygon fill="none" stroke="#000000" points="536.5552,-309.5 536.5552,-375.5 641.6001,-375.5 641.6001,-309.5 536.5552,-309.5"/>
<text text-anchor="middle" x="566.0552" y="-349.3" font-family="Times,serif" font-size="14.00" fill="#000000">#1053</text>
<polyline fill="none" stroke="#000000" points="595.5552,-331.5 595.5552,-375.5 "/>
<text text-anchor="middle" x="618.5552" y="-360.3" font-family="Times,serif" font-size="14.00" fill="#000000"> </text>
<polyline fill="none" stroke="#000000" points="595.5552,-353.5 641.5552,-353.5 "/>
<text text-anchor="middle" x="618.5552" y="-338.3" font-family="Times,serif" font-size="14.00" fill="#000000">Dot</text>
<polyline fill="none" stroke="#000000" points="536.5552,-331.5 641.6001,-331.5 "/>
<text text-anchor="middle" x="589.0776" y="-316.3" font-family="Times,serif" font-size="14.00" fill="#000000">r:1; s:[2,1]; b:&#45;1</text>
</g>
<!-- 1043&#45;&gt;1053 -->
<g id="edge27" class="edge">
<title>1043&#45;&gt;1053</title>
<path fill="none" stroke="#000000" d="M540.2552,-412.3432C546.5501,-403.3381 553.4466,-393.4722 560.0218,-384.066"/>
<polygon fill="#000000" stroke="#000000" points="563.0828,-385.796 565.9435,-375.5947 557.3455,-381.7855 563.0828,-385.796"/>
</g>
<!-- 1047 -->
<g id="node16" class="node">
<title>1047</title>
<polygon fill="none" stroke="#000000" points="136.8672,-412.5 136.8672,-478.5 251.2881,-478.5 251.2881,-412.5 136.8672,-412.5"/>
<text text-anchor="middle" x="162.3672" y="-452.3" font-family="Times,serif" font-size="14.00" fill="#000000">#1047</text>
<polyline fill="none" stroke="#000000" points="187.8672,-434.5 187.8672,-478.5 "/>
<text text-anchor="middle" x="219.5776" y="-463.3" font-family="Times,serif" font-size="14.00" fill="#000000"> </text>
<polyline fill="none" stroke="#000000" points="187.8672,-456.5 251.2881,-456.5 "/>
<text text-anchor="middle" x="219.5776" y="-441.3" font-family="Times,serif" font-size="14.00" fill="#000000">OfArray</text>
<polyline fill="none" stroke="#000000" points="136.8672,-434.5 251.2881,-434.5 "/>
<text text-anchor="middle" x="194.0776" y="-419.3" font-family="Times,serif" font-size="14.00" fill="#000000">r:1; s:[2,1]; b:&#45;1</text>
</g>
<!-- 1047&#45;&gt;1048 -->
<g id="edge16" class="edge">
<title>1047&#45;&gt;1048</title>
<path fill="none" stroke="#000000" d="M194.0776,-412.3432C194.0776,-403.8894 194.0776,-394.6771 194.0776,-385.7985"/>
<polygon fill="#000000" stroke="#000000" points="197.5777,-385.5946 194.0776,-375.5947 190.5777,-385.5947 197.5777,-385.5946"/>
</g>
<!-- 1031 -->
<g id="node17" class="node">
<title>1031</title>
<polygon fill="none" stroke="#000000" points="545.5552,-515.5 545.5552,-581.5 650.6001,-581.5 650.6001,-515.5 545.5552,-515.5"/>
<text text-anchor="middle" x="575.5552" y="-555.3" font-family="Times,serif" font-size="14.00" fill="#000000">#1031</text>
<polyline fill="none" stroke="#000000" points="605.5552,-537.5 605.5552,-581.5 "/>
<text text-anchor="middle" x="627.7725" y="-566.3" font-family="Times,serif" font-size="14.00" fill="#000000">a</text>
<polyline fill="none" stroke="#000000" points="605.5552,-559.5 649.9897,-559.5 "/>
<text text-anchor="middle" x="627.7725" y="-544.3" font-family="Times,serif" font-size="14.00" fill="#000000">Var</text>
<polyline fill="none" stroke="#000000" points="545.5552,-537.5 650.6001,-537.5 "/>
<text text-anchor="middle" x="598.0776" y="-522.3" font-family="Times,serif" font-size="14.00" fill="#000000">r:2; s:[2,2]; b:&#45;1</text>
</g>
<!-- 1031&#45;&gt;1043 -->
<g id="edge17" class="edge">
<title>1031&#45;&gt;1043</title>
<path fill="none" stroke="#000000" d="M572.0029,-515.3432C564.7766,-506.1543 556.8457,-496.0692 549.313,-486.4907"/>
<polygon fill="#000000" stroke="#000000" points="552.0364,-484.2917 543.1036,-478.5947 546.534,-488.6188 552.0364,-484.2917"/>
</g>
<!-- 1031&#45;&gt;1053 -->
<g id="edge26" class="edge">
<title>1031&#45;&gt;1053</title>
<path fill="none" stroke="#000000" d="M596.6316,-515.4025C595.0965,-480.2643 592.6634,-424.5752 590.9751,-385.9316"/>
<polygon fill="#000000" stroke="#000000" points="594.4533,-385.353 590.5201,-375.5153 587.46,-385.6586 594.4533,-385.353"/>
</g>
<!-- 1046 -->
<g id="node18" class="node">
<title>1046</title>
<polygon fill="none" stroke="#000000" points="142.4448,-515.5 142.4448,-581.5 269.7104,-581.5 269.7104,-515.5 142.4448,-515.5"/>
<text text-anchor="middle" x="167.9448" y="-555.3" font-family="Times,serif" font-size="14.00" fill="#000000">#1046</text>
<polyline fill="none" stroke="#000000" points="193.4448,-537.5 193.4448,-581.5 "/>
<text text-anchor="middle" x="231.5776" y="-566.3" font-family="Times,serif" font-size="14.00" fill="#000000"> </text>
<polyline fill="none" stroke="#000000" points="193.4448,-559.5 269.7104,-559.5 "/>
<text text-anchor="middle" x="231.5776" y="-544.3" font-family="Times,serif" font-size="14.00" fill="#000000">Scalar Cos</text>
<polyline fill="none" stroke="#000000" points="142.4448,-537.5 269.7104,-537.5 "/>
<text text-anchor="middle" x="206.0776" y="-522.3" font-family="Times,serif" font-size="14.00" fill="#000000">r:1; s:[]; b:&#45;1</text>
</g>
<!-- 1046&#45;&gt;1047 -->
<g id="edge19" class="edge">
<title>1046&#45;&gt;1047</title>
<path fill="none" stroke="#000000" d="M202.2147,-515.3432C201.2298,-506.8894 200.1565,-497.6771 199.1221,-488.7985"/>
<polygon fill="#000000" stroke="#000000" points="202.5671,-488.1224 197.9333,-478.5947 195.6141,-488.9326 202.5671,-488.1224"/>
</g>
<!-- 1045 -->
<g id="node19" class="node">
<title>1045</title>
<polygon fill="none" stroke="#000000" points="0,-515.5 0,-581.5 124.1553,-581.5 124.1553,-515.5 0,-515.5"/>
<text text-anchor="middle" x="25.5" y="-555.3" font-family="Times,serif" font-size="14.00" fill="#000000">#1045</text>
<polyline fill="none" stroke="#000000" points="51,-537.5 51,-581.5 "/>
<text text-anchor="middle" x="87.5776" y="-566.3" font-family="Times,serif" font-size="14.00" fill="#000000"> </text>
<polyline fill="none" stroke="#000000" points="51,-559.5 124.1553,-559.5 "/>
<text text-anchor="middle" x="87.5776" y="-544.3" font-family="Times,serif" font-size="14.00" fill="#000000">Scalar Sin</text>
<polyline fill="none" stroke="#000000" points="0,-537.5 124.1553,-537.5 "/>
<text text-anchor="middle" x="62.0776" y="-522.3" font-family="Times,serif" font-size="14.00" fill="#000000">r:1; s:[]; b:&#45;1</text>
</g>
<!-- 1045&#45;&gt;1047 -->
<g id="edge20" class="edge">
<title>1045&#45;&gt;1047</title>
<path fill="none" stroke="#000000" d="M104.5699,-515.3432C117.0525,-505.603 130.8256,-494.8558 143.748,-484.7723"/>
<polygon fill="#000000" stroke="#000000" points="145.9343,-487.5059 151.665,-478.5947 141.628,-481.9872 145.9343,-487.5059"/>
</g>
<!-- 1044 -->
<g id="node20" class="node">
<title>1044</title>
<polygon fill="none" stroke="#000000" points="87.2397,-618.5 87.2397,-684.5 186.9155,-684.5 186.9155,-618.5 87.2397,-618.5"/>
<text text-anchor="middle" x="112.7397" y="-658.3" font-family="Times,serif" font-size="14.00" fill="#000000">#1044</text>
<polyline fill="none" stroke="#000000" points="138.2397,-640.5 138.2397,-684.5 "/>
<text text-anchor="middle" x="162.5776" y="-669.3" font-family="Times,serif" font-size="14.00" fill="#000000"> </text>
<polyline fill="none" stroke="#000000" points="138.2397,-662.5 186.9155,-662.5 "/>
<text text-anchor="middle" x="162.5776" y="-647.3" font-family="Times,serif" font-size="14.00" fill="#000000">Const</text>
<polyline fill="none" stroke="#000000" points="87.2397,-640.5 186.9155,-640.5 "/>
<text text-anchor="middle" x="137.0776" y="-625.3" font-family="Times,serif" font-size="14.00" fill="#000000">r:0; v:0.03; b:5</text>
</g>
<!-- 1044&#45;&gt;1046 -->
<g id="edge21" class="edge">
<title>1044&#45;&gt;1046</title>
<path fill="none" stroke="#000000" d="M159.2895,-618.3432C165.322,-609.3381 171.9312,-599.4722 178.2325,-590.066"/>
<polygon fill="#000000" stroke="#000000" points="181.2496,-591.8507 183.9074,-581.5947 175.4339,-587.9548 181.2496,-591.8507"/>
</g>
<!-- 1044&#45;&gt;1045 -->
<g id="edge22" class="edge">
<title>1044&#45;&gt;1045</title>
<path fill="none" stroke="#000000" d="M112.9343,-618.3432C106.3103,-609.2462 99.0467,-599.2708 92.1346,-589.7782"/>
<polygon fill="#000000" stroke="#000000" points="94.8915,-587.6184 86.1757,-581.5947 89.2327,-591.7389 94.8915,-587.6184"/>
</g>
<!-- 1058 -->
<g id="node21" class="node">
<title>1058</title>
<polygon fill="none" stroke="#000000" points="536.5552,-206.5 536.5552,-272.5 641.6001,-272.5 641.6001,-206.5 536.5552,-206.5"/>
<text text-anchor="middle" x="566.0552" y="-246.3" font-family="Times,serif" font-size="14.00" fill="#000000">#1058</text>
<polyline fill="none" stroke="#000000" points="595.5552,-228.5 595.5552,-272.5 "/>
<text text-anchor="middle" x="618.4482" y="-257.3" font-family="Times,serif" font-size="14.00" fill="#000000"> </text>
<polyline fill="none" stroke="#000000" points="595.5552,-250.5 641.3413,-250.5 "/>
<text text-anchor="middle" x="618.4482" y="-235.3" font-family="Times,serif" font-size="14.00" fill="#000000">Sub</text>
<polyline fill="none" stroke="#000000" points="536.5552,-228.5 641.6001,-228.5 "/>
<text text-anchor="middle" x="589.0776" y="-213.3" font-family="Times,serif" font-size="14.00" fill="#000000">r:1; s:[2,1]; b:&#45;1</text>
</g>
<!-- 1058&#45;&gt;1059 -->
<g id="edge23" class="edge">
<title>1058&#45;&gt;1059</title>
<path fill="none" stroke="#000000" d="M585.2147,-206.3432C584.2298,-197.8894 583.1565,-188.6771 582.1221,-179.7985"/>
<polygon fill="#000000" stroke="#000000" points="585.5671,-179.1224 580.9333,-169.5947 578.6141,-179.9326 585.5671,-179.1224"/>
</g>
<!-- 1053&#45;&gt;1058 -->
<g id="edge24" class="edge">
<title>1053&#45;&gt;1058</title>
<path fill="none" stroke="#000000" d="M589.0776,-309.3432C589.0776,-300.8894 589.0776,-291.6771 589.0776,-282.7985"/>
<polygon fill="#000000" stroke="#000000" points="592.5777,-282.5946 589.0776,-272.5947 585.5777,-282.5947 592.5777,-282.5946"/>
</g>
<!-- 1057 -->
<g id="node23" class="node">
<title>1057</title>
<polygon fill="none" stroke="#000000" points="659.8672,-309.5 659.8672,-375.5 774.2881,-375.5 774.2881,-309.5 659.8672,-309.5"/>
<text text-anchor="middle" x="685.3672" y="-349.3" font-family="Times,serif" font-size="14.00" fill="#000000">#1057</text>
<polyline fill="none" stroke="#000000" points="710.8672,-331.5 710.8672,-375.5 "/>
<text text-anchor="middle" x="742.5776" y="-360.3" font-family="Times,serif" font-size="14.00" fill="#000000"> </text>
<polyline fill="none" stroke="#000000" points="710.8672,-353.5 774.2881,-353.5 "/>
<text text-anchor="middle" x="742.5776" y="-338.3" font-family="Times,serif" font-size="14.00" fill="#000000">OfArray</text>
<polyline fill="none" stroke="#000000" points="659.8672,-331.5 774.2881,-331.5 "/>
<text text-anchor="middle" x="717.0776" y="-316.3" font-family="Times,serif" font-size="14.00" fill="#000000">r:1; s:[2,1]; b:&#45;1</text>
</g>
<!-- 1057&#45;&gt;1058 -->
<g id="edge25" class="edge">
<title>1057&#45;&gt;1058</title>
<path fill="none" stroke="#000000" d="M675.8731,-309.3432C663.8829,-299.6949 650.6648,-289.0585 638.237,-279.0579"/>
<polygon fill="#000000" stroke="#000000" points="640.1901,-276.1371 630.205,-272.5947 635.8016,-281.5907 640.1901,-276.1371"/>
</g>
<!-- 1056 -->
<g id="node24" class="node">
<title>1056</title>
<polygon fill="none" stroke="#000000" points="644.4448,-412.5 644.4448,-478.5 771.7104,-478.5 771.7104,-412.5 644.4448,-412.5"/>
<text text-anchor="middle" x="669.9448" y="-452.3" font-family="Times,serif" font-size="14.00" fill="#000000">#1056</text>
<polyline fill="none" stroke="#000000" points="695.4448,-434.5 695.4448,-478.5 "/>
<text text-anchor="middle" x="733.5776" y="-463.3" font-family="Times,serif" font-size="14.00" fill="#000000"> </text>
<polyline fill="none" stroke="#000000" points="695.4448,-456.5 771.7104,-456.5 "/>
<text text-anchor="middle" x="733.5776" y="-441.3" font-family="Times,serif" font-size="14.00" fill="#000000">Scalar Cos</text>
<polyline fill="none" stroke="#000000" points="644.4448,-434.5 771.7104,-434.5 "/>
<text text-anchor="middle" x="708.0776" y="-419.3" font-family="Times,serif" font-size="14.00" fill="#000000">r:1; s:[]; b:&#45;1</text>
</g>
<!-- 1056&#45;&gt;1057 -->
<g id="edge28" class="edge">
<title>1056&#45;&gt;1057</title>
<path fill="none" stroke="#000000" d="M710.9748,-412.3432C711.7135,-403.8894 712.5185,-394.6771 713.2943,-385.7985"/>
<polygon fill="#000000" stroke="#000000" points="716.802,-385.8614 714.1859,-375.5947 709.8286,-385.252 716.802,-385.8614"/>
</g>
<!-- 1055 -->
<g id="node25" class="node">
<title>1055</title>
<polygon fill="none" stroke="#000000" points="790,-412.5 790,-478.5 914.1553,-478.5 914.1553,-412.5 790,-412.5"/>
<text text-anchor="middle" x="815.5" y="-452.3" font-family="Times,serif" font-size="14.00" fill="#000000">#1055</text>
<polyline fill="none" stroke="#000000" points="841,-434.5 841,-478.5 "/>
<text text-anchor="middle" x="877.5776" y="-463.3" font-family="Times,serif" font-size="14.00" fill="#000000"> </text>
<polyline fill="none" stroke="#000000" points="841,-456.5 914.1553,-456.5 "/>
<text text-anchor="middle" x="877.5776" y="-441.3" font-family="Times,serif" font-size="14.00" fill="#000000">Scalar Sin</text>
<polyline fill="none" stroke="#000000" points="790,-434.5 914.1553,-434.5 "/>
<text text-anchor="middle" x="852.0776" y="-419.3" font-family="Times,serif" font-size="14.00" fill="#000000">r:1; s:[]; b:&#45;1</text>
</g>
<!-- 1055&#45;&gt;1057 -->
<g id="edge29" class="edge">
<title>1055&#45;&gt;1057</title>
<path fill="none" stroke="#000000" d="M808.6197,-412.3432C795.8534,-402.603 781.7672,-391.8558 768.5511,-381.7723"/>
<polygon fill="#000000" stroke="#000000" points="770.5275,-378.8779 760.4542,-375.5947 766.2814,-384.4431 770.5275,-378.8779"/>
</g>
<!-- 1054 -->
<g id="node26" class="node">
<title>1054</title>
<polygon fill="none" stroke="#000000" points="735.2397,-515.5 735.2397,-581.5 834.9155,-581.5 834.9155,-515.5 735.2397,-515.5"/>
<text text-anchor="middle" x="760.7397" y="-555.3" font-family="Times,serif" font-size="14.00" fill="#000000">#1054</text>
<polyline fill="none" stroke="#000000" points="786.2397,-537.5 786.2397,-581.5 "/>
<text text-anchor="middle" x="810.5776" y="-566.3" font-family="Times,serif" font-size="14.00" fill="#000000"> </text>
<polyline fill="none" stroke="#000000" points="786.2397,-559.5 834.9155,-559.5 "/>
<text text-anchor="middle" x="810.5776" y="-544.3" font-family="Times,serif" font-size="14.00" fill="#000000">Const</text>
<polyline fill="none" stroke="#000000" points="735.2397,-537.5 834.9155,-537.5 "/>
<text text-anchor="middle" x="785.0776" y="-522.3" font-family="Times,serif" font-size="14.00" fill="#000000">r:0; v:0.03; b:8</text>
</g>
<!-- 1054&#45;&gt;1056 -->
<g id="edge30" class="edge">
<title>1054&#45;&gt;1056</title>
<path fill="none" stroke="#000000" d="M760.2905,-515.3432C753.4898,-506.2462 746.0325,-496.2708 738.9361,-486.7782"/>
<polygon fill="#000000" stroke="#000000" points="741.6092,-484.5084 732.8183,-478.5947 736.0026,-488.6997 741.6092,-484.5084"/>
</g>
<!-- 1054&#45;&gt;1055 -->
<g id="edge31" class="edge">
<title>1054&#45;&gt;1055</title>
<path fill="none" stroke="#000000" d="M806.6457,-515.3432C812.5034,-506.3381 818.9209,-496.4722 825.0396,-487.066"/>
<polygon fill="#000000" stroke="#000000" points="828.0311,-488.8858 830.55,-478.5947 822.1633,-485.0688 828.0311,-488.8858"/>
</g>
</g>
</svg>
